<?xml version="1.0" encoding="UTF-8"?>
<!DOCTYPE svg PUBLIC "-//W3C//DTD SVG 1.1//EN" "http://www.w3.org/Graphics/SVG/1.1/DTD/svg11.dtd">
<svg xmlns="http://www.w3.org/2000/svg" version="1.1" width="1024px" height="768px" style="shape-rendering:geometricPrecision; text-rendering:geometricPrecision; image-rendering:optimizeQuality; fill-rule:evenodd; clip-rule:evenodd" xmlns:xlink="http://www.w3.org/1999/xlink">
<g><path style="opacity:1" fill="#fefefe" d="M -0.5,-0.5 C 340.833,-0.5 682.167,-0.5 1023.5,-0.5C 1023.5,255.5 1023.5,511.5 1023.5,767.5C 682.167,767.5 340.833,767.5 -0.5,767.5C -0.5,511.5 -0.5,255.5 -0.5,-0.5 Z"/></g>
<g><path style="opacity:1" fill="#2f5c6c" d="M 495.5,22.5 C 479.563,24.2311 463.896,27.7311 448.5,33C 447.244,33.4169 446.577,34.2502 446.5,35.5C 445.735,35.0766 444.902,34.7432 444,34.5C 379.198,60.1349 334.365,105.468 309.5,170.5C 296.082,203.5 291.582,237.834 296,273.5C 308.143,346.621 345.976,402.121 409.5,440C 421.986,447.243 434.986,453.41 448.5,458.5C 446.401,466.138 443.734,473.471 440.5,480.5C 440.186,474.203 437.519,469.203 432.5,465.5C 431.604,464.494 430.938,464.494 430.5,465.5C 421.733,454.3 410.4,450.8 396.5,455C 389.469,457.873 383.802,462.373 379.5,468.5C 380.585,463.83 378.918,460.83 374.5,459.5C 373.684,457.856 372.35,456.69 370.5,456C 349.833,455.333 329.167,455.333 308.5,456C 301.403,458.26 299.736,462.593 303.5,469C 311.054,470.432 318.721,470.932 326.5,470.5C 326.737,471.791 326.404,472.791 325.5,473.5C 323.085,472.186 320.252,471.519 317,471.5C 314.167,471.667 311.333,471.833 308.5,472C 309.044,472.717 309.711,473.217 310.5,473.5C 311.058,474.79 312.058,475.623 313.5,476C 317.152,476.499 320.818,476.665 324.5,476.5C 322.341,482.985 320.008,489.319 317.5,495.5C 303.167,495.5 288.833,495.5 274.5,495.5C 270.811,494.223 267.144,493.223 263.5,492.5C 263.18,483.152 267.513,477.152 276.5,474.5C 277.734,478.736 280.401,481.736 284.5,483.5C 285.436,484.974 286.77,485.974 288.5,486.5C 288.953,487.458 289.619,488.292 290.5,489C 296.084,490.737 299.917,488.904 302,483.5C 303.456,476.357 301.289,470.69 295.5,466.5C 294.462,464.372 293.129,463.372 291.5,463.5C 281.658,453.301 269.991,450.801 256.5,456C 252.678,458.33 249.012,460.83 245.5,463.5C 243.502,461.4 241.335,459.4 239,457.5C 238.601,457.728 238.435,458.062 238.5,458.5C 237.115,456.117 235.115,454.45 232.5,453.5C 232.5,309.833 232.5,166.167 232.5,22.5C 320.167,22.5 407.833,22.5 495.5,22.5 Z"/></g>
<g><path style="opacity:1" fill="#305c6c" d="M 533.5,22.5 C 619.167,22.5 704.833,22.5 790.5,22.5C 790.5,167.167 790.5,311.833 790.5,456.5C 785.284,469.492 780.284,482.492 775.5,495.5C 772.5,495.5 769.5,495.5 766.5,495.5C 769.315,488.802 770.148,481.802 769,474.5C 767.726,471.064 765.559,468.397 762.5,466.5C 761.542,466.047 760.708,465.381 760,464.5C 759.601,464.728 759.435,465.062 759.5,465.5C 752.051,456.133 742.385,452.966 730.5,456C 729.034,456.635 727.7,457.469 726.5,458.5C 721.386,452.271 715.886,451.938 710,457.5C 705.04,470.227 700.207,482.893 695.5,495.5C 692.5,495.5 689.5,495.5 686.5,495.5C 690.226,485.989 693.56,476.322 696.5,466.5C 696.056,463.273 694.389,460.939 691.5,459.5C 690.738,457.738 689.404,456.738 687.5,456.5C 683.096,451.757 678.096,451.257 672.5,455C 671,456.5 669.5,458 668,459.5C 657.571,452.131 646.738,451.631 635.5,458C 632,460.167 629.167,463 627,466.5C 622.65,476.068 618.817,485.734 615.5,495.5C 615.167,495.5 614.833,495.5 614.5,495.5C 616.147,490.244 617.481,484.911 618.5,479.5C 618.768,473.368 616.435,468.702 611.5,465.5C 610.738,463.738 609.404,462.738 607.5,462.5C 604.417,459.092 600.751,456.425 596.5,454.5C 638.157,434.237 672.99,405.571 701,368.5C 740.719,306.844 749.219,241.011 726.5,171C 726.164,169.97 725.497,169.47 724.5,169.5C 718.718,152.269 710.551,136.269 700,121.5C 658.601,65.0406 603.101,32.0406 533.5,22.5 Z"/></g>
<g><path style="opacity:1" fill="#1f8ea4" d="M 495.5,22.5 C 508.167,22.5 520.833,22.5 533.5,22.5C 603.101,32.0406 658.601,65.0406 700,121.5C 710.551,136.269 718.718,152.269 724.5,169.5C 705.167,181.167 685.833,192.833 666.5,204.5C 656.626,170.783 637.793,143.116 610,121.5C 609.604,106.414 608.271,91.4141 606,76.5C 603.848,64.6869 599.015,54.1869 591.5,45C 589.365,44.3653 587.365,44.6986 585.5,46C 571.262,60.2347 557.762,75.0681 545,90.5C 543.527,92.0071 541.693,92.6738 539.5,92.5C 524.181,91.7305 508.848,91.2305 493.5,91C 479.635,74.9729 465.635,59.1395 451.5,43.5C 449.833,40.8333 448.167,38.1667 446.5,35.5C 446.577,34.2502 447.244,33.4169 448.5,33C 463.896,27.7311 479.563,24.2311 495.5,22.5 Z"/></g>
<g><path style="opacity:1" fill="#f9f5f3" d="M 599.5,163.5 C 608.142,171.774 613.976,181.774 617,193.5C 617.55,200.553 617.55,207.553 617,214.5C 618.015,211.79 619.515,209.457 621.5,207.5C 631.657,212.344 640.99,218.344 649.5,225.5C 655.761,233.265 662.594,240.598 670,247.5C 670.483,248.448 670.649,249.448 670.5,250.5C 662.774,255.356 655.441,260.689 648.5,266.5C 634.97,275.521 622.136,285.521 610,296.5C 605.23,285.171 599.897,274.171 594,263.5C 592.263,259.339 591.263,255.005 591,250.5C 585.666,256.738 579.499,261.904 572.5,266C 583.572,274.295 591.072,285.129 595,298.5C 600.593,314.508 603.76,330.841 604.5,347.5C 606.833,354.833 609.167,362.167 611.5,369.5C 613.511,376.544 615.678,383.544 618,390.5C 625.107,392.711 630.44,397.045 634,403.5C 635.711,409.694 634.211,414.86 629.5,419C 612.734,424.458 596.401,423.458 580.5,416C 574.379,410.804 570.379,404.304 568.5,396.5C 564.694,383.944 561.194,371.277 558,358.5C 557,357.167 556,357.167 555,358.5C 555.03,364.148 555.197,369.815 555.5,375.5C 542.308,378.204 528.975,379.871 515.5,380.5C 503.687,379.732 492.021,378.065 480.5,375.5C 480.148,370.515 480.815,365.681 482.5,361C 481.872,358.474 480.539,357.641 478.5,358.5C 475.039,371.144 471.705,383.81 468.5,396.5C 462.296,416.159 448.796,424.826 428,422.5C 420.068,423.047 412.568,421.547 405.5,418C 399.027,403.922 403.36,394.756 418.5,390.5C 420.989,383.541 423.322,376.541 425.5,369.5C 427.48,362.248 429.146,354.914 430.5,347.5C 431.39,322.926 437.557,299.593 449,277.5C 452.752,272.538 457.252,268.371 462.5,265C 455.12,260.627 448.62,255.127 443,248.5C 442.74,252.25 442.073,255.916 441,259.5C 434.053,271.391 428.219,283.724 423.5,296.5C 412.311,284.254 399.644,273.921 385.5,265.5C 378.394,259.44 370.728,254.107 362.5,249.5C 362.5,249.167 362.5,248.833 362.5,248.5C 370.5,241.167 378.167,233.5 385.5,225.5C 393.849,217.662 403.182,211.162 413.5,206C 415.167,205.333 416.833,205.333 418.5,206C 420.792,209.416 422.959,212.916 425,216.5C 421.22,195.253 427.387,177.586 443.5,163.5C 445.477,161.186 447.477,158.853 449.5,156.5C 444.231,146.519 441.064,135.852 440,124.5C 438.568,104.633 439.902,84.9659 444,65.5C 445.029,61.111 446.862,57.111 449.5,53.5C 463.921,66.4175 477.087,80.4175 489,95.5C 492.033,100.372 494.867,105.372 497.5,110.5C 498.667,110.833 499.833,111.167 501,111.5C 512.823,108.885 524.656,108.885 536.5,111.5C 537.833,111.167 539.167,110.833 540.5,110.5C 544.738,101.021 550.238,92.3542 557,84.5C 566.47,74.0294 576.303,63.8628 586.5,54C 587.167,53.3333 587.833,53.3333 588.5,54C 591.596,58.0267 593.763,62.5267 595,67.5C 601.4,94.0326 602.067,120.699 597,147.5C 596.063,150.656 594.563,153.489 592.5,156C 595.067,158.396 597.4,160.896 599.5,163.5 Z"/></g>
<g><path style="opacity:1" fill="#292a2a" d="M 451.5,43.5 C 465.635,59.1395 479.635,74.9729 493.5,91C 508.848,91.2305 524.181,91.7305 539.5,92.5C 541.693,92.6738 543.527,92.0071 545,90.5C 557.762,75.0681 571.262,60.2347 585.5,46C 587.365,44.6986 589.365,44.3653 591.5,45C 599.015,54.1869 603.848,64.6869 606,76.5C 608.271,91.4141 609.604,106.414 610,121.5C 637.793,143.116 656.626,170.783 666.5,204.5C 671.358,225.389 672.691,246.389 670.5,267.5C 670.5,261.833 670.5,256.167 670.5,250.5C 670.649,249.448 670.483,248.448 670,247.5C 662.594,240.598 655.761,233.265 649.5,225.5C 644.151,194.788 629.984,169.121 607,148.5C 604.997,153.84 602.497,158.84 599.5,163.5C 597.4,160.896 595.067,158.396 592.5,156C 594.563,153.489 596.063,150.656 597,147.5C 602.067,120.699 601.4,94.0326 595,67.5C 593.763,62.5267 591.596,58.0267 588.5,54C 587.833,53.3333 587.167,53.3333 586.5,54C 576.303,63.8628 566.47,74.0294 557,84.5C 550.238,92.3542 544.738,101.021 540.5,110.5C 539.167,110.833 537.833,111.167 536.5,111.5C 524.656,108.885 512.823,108.885 501,111.5C 499.833,111.167 498.667,110.833 497.5,110.5C 494.867,105.372 492.033,100.372 489,95.5C 477.087,80.4175 463.921,66.4175 449.5,53.5C 446.862,57.111 445.029,61.111 444,65.5C 439.902,84.9659 438.568,104.633 440,124.5C 441.064,135.852 444.231,146.519 449.5,156.5C 447.477,158.853 445.477,161.186 443.5,163.5C 441.926,163.063 440.759,162.063 440,160.5C 437.667,155.167 435.333,149.833 433,144.5C 407.392,165.709 391.559,192.709 385.5,225.5C 378.167,233.5 370.5,241.167 362.5,248.5C 362.611,203.319 378.944,165.152 411.5,134C 417.959,129.21 424.126,124.043 430,118.5C 430.555,98.6176 432.888,78.9509 437,59.5C 438.966,55.5197 440.966,51.5197 443,47.5C 445.663,45.7511 448.497,44.4178 451.5,43.5 Z"/></g>
<g><path style="opacity:1" fill="#c94a50" d="M 446.5,35.5 C 448.167,38.1667 449.833,40.8333 451.5,43.5C 448.497,44.4178 445.663,45.7511 443,47.5C 440.966,51.5197 438.966,55.5197 437,59.5C 432.888,78.9509 430.555,98.6176 430,118.5C 424.126,124.043 417.959,129.21 411.5,134C 378.944,165.152 362.611,203.319 362.5,248.5C 362.5,248.833 362.5,249.167 362.5,249.5C 362.5,251.167 362.5,252.833 362.5,254.5C 361.288,252.446 359.621,252.446 357.5,254.5C 355.226,254.03 353.226,253.03 351.5,251.5C 350.745,245.836 350.078,240.169 349.5,234.5C 351.531,232.443 351.531,230.61 349.5,229C 350.383,225.55 351.216,222.05 352,218.5C 355.016,215.966 355.85,212.799 354.5,209C 356.069,206.883 357.069,203.883 357.5,200C 356.556,197.281 356.223,194.448 356.5,191.5C 357.5,191.5 358.5,191.5 359.5,191.5C 360.546,187.916 361.379,184.25 362,180.5C 364.285,178.093 366.451,175.593 368.5,173C 367.833,172.667 367.167,172.333 366.5,172C 369.145,169.815 370.645,166.982 371,163.5C 373.866,160.844 375.699,158.011 376.5,155C 378.726,153.773 380.226,151.939 381,149.5C 381.333,150.5 381.667,151.5 382,152.5C 382.676,148.156 384.176,144.156 386.5,140.5C 386.167,139.833 385.833,139.167 385.5,138.5C 391.461,134.704 396.294,129.704 400,123.5C 400.414,123.957 400.914,124.291 401.5,124.5C 408.117,120.961 412.283,115.961 414,109.5C 415.512,108.743 416.846,107.743 418,106.5C 418.311,105.258 417.811,104.258 416.5,103.5C 419.091,99.7935 418.424,96.6269 414.5,94C 416.57,93.0524 418.07,91.5524 419,89.5C 419.593,93.3524 420.76,97.0191 422.5,100.5C 423.474,98.2573 423.808,95.924 423.5,93.5C 425.331,94.0522 426.997,94.0522 428.5,93.5C 427.522,92.1987 427.855,91.032 429.5,90C 427.419,88.618 427.085,86.9513 428.5,85C 427.964,82.76 426.797,80.9266 425,79.5C 424.28,81.1124 424.446,82.6124 425.5,84C 422.881,84.1515 420.547,84.9848 418.5,86.5C 417.269,85.3493 417.269,84.1827 418.5,83C 416.587,78.7041 413.921,74.8707 410.5,71.5C 412.51,69.8287 414.843,69.162 417.5,69.5C 417.5,68.5 417.5,67.5 417.5,66.5C 411.122,66.7054 404.789,66.3721 398.5,65.5C 398.643,67.2624 398.309,68.9291 397.5,70.5C 396.609,71.5896 395.609,71.5896 394.5,70.5C 393.05,71.8498 392.383,73.5165 392.5,75.5C 389.454,76.394 386.454,76.5607 383.5,76C 384.646,78.5572 383.646,79.8905 380.5,80C 379.833,81.3333 379.167,82.6667 378.5,84C 376.754,84.4709 375.087,85.1376 373.5,86C 374.167,86.3333 374.833,86.6667 375.5,87C 374.109,88.02 372.609,88.8534 371,89.5C 370.51,90.7932 370.343,92.1266 370.5,93.5C 369.022,93.238 367.689,93.5713 366.5,94.5C 363.912,96.7901 361.745,99.4568 360,102.5C 359.667,102.167 359.333,101.833 359,101.5C 358,103.5 357,105.5 356,107.5C 355,107.167 354,106.833 353,106.5C 352.506,108.134 352.34,109.801 352.5,111.5C 351.448,111.351 350.448,111.517 349.5,112C 348.853,113.609 348.02,115.109 347,116.5C 346,115.167 345,115.167 344,116.5C 343.503,118.81 343.337,121.143 343.5,123.5C 341.459,123.854 339.626,123.854 338,123.5C 337.843,125.995 337.676,128.328 337.5,130.5C 336.086,129.376 334.586,128.376 333,127.5C 333.129,131.205 333.462,134.872 334,138.5C 333.676,140.569 332.842,140.902 331.5,139.5C 329.823,141.76 327.657,143.427 325,144.5C 325.207,146.751 325.373,149.085 325.5,151.5C 323.042,151.227 321.375,152.227 320.5,154.5C 321.348,156.409 321.682,158.409 321.5,160.5C 320.178,160.67 319.011,160.337 318,159.5C 317.333,162.167 316.667,162.167 316,159.5C 316,162.833 316,166.167 316,169.5C 315.667,168.833 315.333,168.167 315,167.5C 314.333,168.833 313.667,168.833 313,167.5C 312.241,169.063 311.074,170.063 309.5,170.5C 334.365,105.468 379.198,60.1349 444,34.5C 444.902,34.7432 445.735,35.0766 446.5,35.5 Z"/></g>
<g><path style="opacity:1" fill="#929b9d" d="M 443.5,163.5 C 427.387,177.586 421.22,195.253 425,216.5C 422.959,212.916 420.792,209.416 418.5,206C 416.833,205.333 415.167,205.333 413.5,206C 403.182,211.162 393.849,217.662 385.5,225.5C 391.559,192.709 407.392,165.709 433,144.5C 435.333,149.833 437.667,155.167 440,160.5C 440.759,162.063 441.926,163.063 443.5,163.5 Z"/></g>
<g><path style="opacity:1" fill="#949d9e" d="M 649.5,225.5 C 640.99,218.344 631.657,212.344 621.5,207.5C 619.515,209.457 618.015,211.79 617,214.5C 617.55,207.553 617.55,200.553 617,193.5C 613.976,181.774 608.142,171.774 599.5,163.5C 602.497,158.84 604.997,153.84 607,148.5C 629.984,169.121 644.151,194.788 649.5,225.5 Z"/></g>
<g><path style="opacity:1" fill="#292a2a" d="M 547.5,157.5 C 554.825,156.992 557.658,160.326 556,167.5C 551.82,171.792 548.487,171.126 546,165.5C 545.282,162.593 545.782,159.926 547.5,157.5 Z"/></g>
<g><path style="opacity:1" fill="#272828" d="M 490.5,157.5 C 498.003,156.853 500.503,160.186 498,167.5C 494.477,171.701 491.477,171.368 489,166.5C 488.068,163.177 488.568,160.177 490.5,157.5 Z"/></g>
<g><path style="opacity:1" fill="#d04951" d="M 362.5,254.5 C 366.038,302.589 387.038,340.923 425.5,369.5C 423.322,376.541 420.989,383.541 418.5,390.5C 403.36,394.756 399.027,403.922 405.5,418C 412.568,421.547 420.068,423.047 428,422.5C 448.796,424.826 462.296,416.159 468.5,396.5C 490.406,403.343 512.739,405.177 535.5,402C 546.601,400.594 557.601,398.761 568.5,396.5C 570.379,404.304 574.379,410.804 580.5,416C 596.401,423.458 612.734,424.458 629.5,419C 634.211,414.86 635.711,409.694 634,403.5C 630.44,397.045 625.107,392.711 618,390.5C 615.678,383.544 613.511,376.544 611.5,369.5C 644.43,343.48 664.097,309.48 670.5,267.5C 672.691,246.389 671.358,225.389 666.5,204.5C 685.833,192.833 705.167,181.167 724.5,169.5C 725.497,169.47 726.164,169.97 726.5,171C 749.219,241.011 740.719,306.844 701,368.5C 672.99,405.571 638.157,434.237 596.5,454.5C 588.856,452.48 581.69,453.48 575,457.5C 569.28,452.249 563.614,452.249 558,457.5C 557.119,460.647 555.953,463.647 554.5,466.5C 553.615,463.94 551.949,461.94 549.5,460.5C 548.167,459.5 546.833,458.5 545.5,457.5C 539.697,451.936 534.197,452.269 529,458.5C 527.434,463.056 525.601,467.39 523.5,471.5C 518.167,471.5 512.833,471.5 507.5,471.5C 506.194,469.527 504.527,467.861 502.5,466.5C 501.167,465.5 499.833,464.5 498.5,463.5C 489.254,455.331 478.754,453.331 467,457.5C 460.494,451.931 454.327,452.264 448.5,458.5C 434.986,453.41 421.986,447.243 409.5,440C 345.976,402.121 308.143,346.621 296,273.5C 291.582,237.834 296.082,203.5 309.5,170.5C 311.074,170.063 312.241,169.063 313,167.5C 313.667,168.833 314.333,168.833 315,167.5C 315.333,168.167 315.667,168.833 316,169.5C 316,166.167 316,162.833 316,159.5C 316.667,162.167 317.333,162.167 318,159.5C 319.011,160.337 320.178,160.67 321.5,160.5C 321.682,158.409 321.348,156.409 320.5,154.5C 321.375,152.227 323.042,151.227 325.5,151.5C 325.373,149.085 325.207,146.751 325,144.5C 327.657,143.427 329.823,141.76 331.5,139.5C 332.842,140.902 333.676,140.569 334,138.5C 333.462,134.872 333.129,131.205 333,127.5C 334.586,128.376 336.086,129.376 337.5,130.5C 337.676,128.328 337.843,125.995 338,123.5C 339.626,123.854 341.459,123.854 343.5,123.5C 343.337,121.143 343.503,118.81 344,116.5C 345,115.167 346,115.167 347,116.5C 348.02,115.109 348.853,113.609 349.5,112C 350.448,111.517 351.448,111.351 352.5,111.5C 352.34,109.801 352.506,108.134 353,106.5C 354,106.833 355,107.167 356,107.5C 357,105.5 358,103.5 359,101.5C 359.333,101.833 359.667,102.167 360,102.5C 361.745,99.4568 363.912,96.7901 366.5,94.5C 367.689,93.5713 369.022,93.238 370.5,93.5C 370.343,92.1266 370.51,90.7932 371,89.5C 372.609,88.8534 374.109,88.02 375.5,87C 374.833,86.6667 374.167,86.3333 373.5,86C 375.087,85.1376 376.754,84.4709 378.5,84C 379.167,82.6667 379.833,81.3333 380.5,80C 383.646,79.8905 384.646,78.5572 383.5,76C 386.454,76.5607 389.454,76.394 392.5,75.5C 392.383,73.5165 393.05,71.8498 394.5,70.5C 395.609,71.5896 396.609,71.5896 397.5,70.5C 398.309,68.9291 398.643,67.2624 398.5,65.5C 404.789,66.3721 411.122,66.7054 417.5,66.5C 417.5,67.5 417.5,68.5 417.5,69.5C 414.843,69.162 412.51,69.8287 410.5,71.5C 413.921,74.8707 416.587,78.7041 418.5,83C 417.269,84.1827 417.269,85.3493 418.5,86.5C 420.547,84.9848 422.881,84.1515 425.5,84C 424.446,82.6124 424.28,81.1124 425,79.5C 426.797,80.9266 427.964,82.76 428.5,85C 427.085,86.9513 427.419,88.618 429.5,90C 427.855,91.032 427.522,92.1987 428.5,93.5C 426.997,94.0522 425.331,94.0522 423.5,93.5C 423.808,95.924 423.474,98.2573 422.5,100.5C 420.76,97.0191 419.593,93.3524 419,89.5C 418.07,91.5524 416.57,93.0524 414.5,94C 418.424,96.6269 419.091,99.7935 416.5,103.5C 417.811,104.258 418.311,105.258 418,106.5C 416.846,107.743 415.512,108.743 414,109.5C 412.283,115.961 408.117,120.961 401.5,124.5C 400.914,124.291 400.414,123.957 400,123.5C 396.294,129.704 391.461,134.704 385.5,138.5C 385.833,139.167 386.167,139.833 386.5,140.5C 384.176,144.156 382.676,148.156 382,152.5C 381.667,151.5 381.333,150.5 381,149.5C 380.226,151.939 378.726,153.773 376.5,155C 375.699,158.011 373.866,160.844 371,163.5C 370.645,166.982 369.145,169.815 366.5,172C 367.167,172.333 367.833,172.667 368.5,173C 366.451,175.593 364.285,178.093 362,180.5C 361.379,184.25 360.546,187.916 359.5,191.5C 358.5,191.5 357.5,191.5 356.5,191.5C 356.223,194.448 356.556,197.281 357.5,200C 357.069,203.883 356.069,206.883 354.5,209C 355.85,212.799 355.016,215.966 352,218.5C 351.216,222.05 350.383,225.55 349.5,229C 351.531,230.61 351.531,232.443 349.5,234.5C 350.078,240.169 350.745,245.836 351.5,251.5C 353.226,253.03 355.226,254.03 357.5,254.5C 359.621,252.446 361.288,252.446 362.5,254.5 Z"/></g>
<g><path style="opacity:1" fill="#2a2b2b" d="M 510.5,178.5 C 518.174,178.334 525.841,178.5 533.5,179C 543.408,182.508 545.241,188.675 539,197.5C 535.356,202.239 530.522,204.739 524.5,205C 523.339,207.721 524.006,210.054 526.5,212C 540.929,220.188 550.762,216.355 556,200.5C 557.079,198.606 558.413,198.273 560,199.5C 560.738,203.402 560.072,207.068 558,210.5C 553.667,215.5 549.333,220.5 545,225.5C 544.944,234.838 543.278,243.838 540,252.5C 533.01,262.609 523.843,265.442 512.5,261C 505.975,257.096 501.475,251.596 499,244.5C 498.393,237.494 497.727,230.494 497,223.5C 490.346,217.692 485.513,210.692 482.5,202.5C 482.84,199.982 484.174,198.815 486.5,199C 488.761,201.772 490.261,204.938 491,208.5C 498.046,216.826 506.546,218.659 516.5,214C 519.288,211.477 520.621,208.31 520.5,204.5C 513.534,203.428 508.367,199.762 505,193.5C 501.633,186.317 503.466,181.317 510.5,178.5 Z"/></g>
<g><path style="opacity:1" fill="#f7d6d7" d="M 501.5,220.5 C 502.873,220.343 504.207,220.51 505.5,221C 510.343,224.171 515.509,226.671 521,228.5C 527.754,225.566 534.588,222.899 541.5,220.5C 543.904,235.504 539.237,247.671 527.5,257C 522.931,259.219 518.598,258.886 514.5,256C 510.667,251.5 506.833,247 503,242.5C 501.787,236.592 500.953,230.592 500.5,224.5C 500.623,223.075 500.957,221.742 501.5,220.5 Z"/></g>
<g><path style="opacity:1" fill="#292a2a" d="M 670.5,250.5 C 670.5,256.167 670.5,261.833 670.5,267.5C 664.097,309.48 644.43,343.48 611.5,369.5C 609.167,362.167 606.833,354.833 604.5,347.5C 604.369,346.761 604.536,346.094 605,345.5C 630.47,325.227 644.97,298.894 648.5,266.5C 655.441,260.689 662.774,255.356 670.5,250.5 Z"/></g>
<g><path style="opacity:1" fill="#282929" d="M 362.5,249.5 C 370.728,254.107 378.394,259.44 385.5,265.5C 389.16,298.28 403.993,324.613 430,344.5C 430.483,345.448 430.649,346.448 430.5,347.5C 429.146,354.914 427.48,362.248 425.5,369.5C 387.038,340.923 366.038,302.589 362.5,254.5C 362.5,252.833 362.5,251.167 362.5,249.5 Z"/></g>
<g><path style="opacity:1" fill="#959b9d" d="M 648.5,266.5 C 644.97,298.894 630.47,325.227 605,345.5C 604.536,346.094 604.369,346.761 604.5,347.5C 603.76,330.841 600.593,314.508 595,298.5C 591.072,285.129 583.572,274.295 572.5,266C 579.499,261.904 585.666,256.738 591,250.5C 591.263,255.005 592.263,259.339 594,263.5C 599.897,274.171 605.23,285.171 610,296.5C 622.136,285.521 634.97,275.521 648.5,266.5 Z"/></g>
<g><path style="opacity:1" fill="#949c9d" d="M 430.5,347.5 C 430.649,346.448 430.483,345.448 430,344.5C 403.993,324.613 389.16,298.28 385.5,265.5C 399.644,273.921 412.311,284.254 423.5,296.5C 428.219,283.724 434.053,271.391 441,259.5C 442.073,255.916 442.74,252.25 443,248.5C 448.62,255.127 455.12,260.627 462.5,265C 457.252,268.371 452.752,272.538 449,277.5C 437.557,299.593 431.39,322.926 430.5,347.5 Z"/></g>
<g><path style="opacity:1" fill="#292a2a" d="M 568.5,396.5 C 557.601,398.761 546.601,400.594 535.5,402C 512.739,405.177 490.406,403.343 468.5,396.5C 471.705,383.81 475.039,371.144 478.5,358.5C 480.539,357.641 481.872,358.474 482.5,361C 480.815,365.681 480.148,370.515 480.5,375.5C 492.021,378.065 503.687,379.732 515.5,380.5C 528.975,379.871 542.308,378.204 555.5,375.5C 555.197,369.815 555.03,364.148 555,358.5C 556,357.167 557,357.167 558,358.5C 561.194,371.277 564.694,383.944 568.5,396.5 Z"/></g>
<g><path style="opacity:1" fill="#05be64" d="M 291.5,463.5 C 295.412,469.734 295.412,475.901 291.5,482C 289.323,483.202 286.989,483.702 284.5,483.5C 280.401,481.736 277.734,478.736 276.5,474.5C 276.573,472.973 275.906,471.973 274.5,471.5C 264.093,467.532 258.093,471.198 256.5,482.5C 256.89,486.285 258.556,489.285 261.5,491.5C 261.842,492.338 262.508,492.672 263.5,492.5C 267.144,493.223 270.811,494.223 274.5,495.5C 274.833,496.167 275.167,496.833 275.5,497.5C 279.073,509.612 274.407,515.279 261.5,514.5C 254.453,510.097 247.786,510.763 241.5,516.5C 235.903,523.923 236.237,530.923 242.5,537.5C 242.973,538.906 243.973,539.573 245.5,539.5C 260.516,543.117 273.682,539.451 285,528.5C 287.79,523.083 290.957,517.916 294.5,513C 299.226,511.518 302.893,512.685 305.5,516.5C 303.123,530.09 296.123,540.59 284.5,548C 269.286,557.01 253.286,558.843 236.5,553.5C 222.542,547.494 216.542,536.828 218.5,521.5C 220.603,513.961 224.269,507.294 229.5,501.5C 233.539,499.481 237.539,497.481 241.5,495.5C 239.892,492.618 238.559,489.618 237.5,486.5C 237.15,481.969 237.817,477.636 239.5,473.5C 241.075,469.922 243.075,466.589 245.5,463.5C 249.012,460.83 252.678,458.33 256.5,456C 269.991,450.801 281.658,453.301 291.5,463.5 Z"/></g>
<g><path style="opacity:1" fill="#05be64" d="M 430.5,465.5 C 433.938,472.196 432.938,478.029 427.5,483C 425.527,483.495 423.527,483.662 421.5,483.5C 417.991,481.335 415.658,478.335 414.5,474.5C 414.167,473.5 413.5,472.833 412.5,472.5C 404.561,467.356 398.728,469.356 395,478.5C 393.645,483.941 395.145,488.274 399.5,491.5C 399.842,492.338 400.508,492.672 401.5,492.5C 405.139,493.223 408.806,494.223 412.5,495.5C 412.932,496.71 413.599,497.71 414.5,498.5C 415.126,503.408 414.126,507.908 411.5,512C 409.1,513.701 406.433,514.534 403.5,514.5C 399.246,513.803 395.08,512.803 391,511.5C 378.199,513.638 373.532,520.971 377,533.5C 377.66,535.324 378.827,536.657 380.5,537.5C 380.973,538.906 381.973,539.573 383.5,539.5C 399.476,543.455 412.976,539.121 424,526.5C 428.725,516.49 432.559,506.157 435.5,495.5C 437.009,492.322 438.342,488.989 439.5,485.5C 440.038,483.883 440.371,482.216 440.5,480.5C 443.734,473.471 446.401,466.138 448.5,458.5C 454.327,452.264 460.494,451.931 467,457.5C 478.754,453.331 489.254,455.331 498.5,463.5C 503.105,474.629 502.105,485.296 495.5,495.5C 493.37,497.127 491.37,498.96 489.5,501C 492.915,504.239 494.582,508.239 494.5,513C 492.14,521.246 489.474,529.412 486.5,537.5C 486.179,540.512 487.512,541.845 490.5,541.5C 493.147,541.071 495.147,539.738 496.5,537.5C 499.709,534.772 502.209,531.439 504,527.5C 508.53,517.076 512.363,506.41 515.5,495.5C 518.735,487.795 521.402,479.795 523.5,471.5C 525.601,467.39 527.434,463.056 529,458.5C 534.197,452.269 539.697,451.936 545.5,457.5C 546.435,460.113 546.602,462.779 546,465.5C 542.526,474.757 539.359,484.09 536.5,493.5C 529.598,512.364 522.765,531.364 516,550.5C 513.383,554.726 509.55,556.726 504.5,556.5C 504.167,556.5 503.833,556.5 503.5,556.5C 502.235,555.521 500.901,554.521 499.5,553.5C 492.393,556.592 485.059,557.259 477.5,555.5C 468.695,551.223 465.195,544.223 467,534.5C 469.134,529.241 470.967,523.908 472.5,518.5C 473.833,516.833 473.833,515.167 472.5,513.5C 471.866,512.053 470.699,511.387 469,511.5C 465.542,512.286 462.042,512.62 458.5,512.5C 457.609,511.89 456.609,511.557 455.5,511.5C 454.524,510.185 453.524,508.852 452.5,507.5C 446.715,522.017 441.215,536.684 436,551.5C 433.181,555.493 429.347,557.16 424.5,556.5C 422.668,555.752 421.001,554.752 419.5,553.5C 419.092,552.357 418.425,551.357 417.5,550.5C 402.405,557.624 387.072,558.29 371.5,552.5C 358.278,545.031 353.445,533.697 357,518.5C 360.684,506.984 368.184,499.317 379.5,495.5C 376.024,489.719 374.691,483.386 375.5,476.5C 376.537,475.07 377.204,473.403 377.5,471.5C 378.401,470.71 379.068,469.71 379.5,468.5C 383.802,462.373 389.469,457.873 396.5,455C 410.4,450.8 421.733,454.3 430.5,465.5 Z"/></g>
<g><path style="opacity:1" fill="#05be64" d="M 687.5,456.5 C 688.677,460.154 688.511,463.82 687,467.5C 683.727,476.486 680.561,485.486 677.5,494.5C 672.735,506.62 668.235,518.953 664,531.5C 663.333,534.167 663.333,536.833 664,539.5C 664.383,540.056 664.883,540.389 665.5,540.5C 667.389,541.742 669.389,541.742 671.5,540.5C 676.041,538.798 679.541,535.798 682,531.5C 687.591,519.891 692.091,507.891 695.5,495.5C 700.207,482.893 705.04,470.227 710,457.5C 715.886,451.938 721.386,452.271 726.5,458.5C 727.7,457.469 729.034,456.635 730.5,456C 742.385,452.966 752.051,456.133 759.5,465.5C 762.979,476.085 761.646,486.085 755.5,495.5C 753.959,497.388 752.293,499.221 750.5,501C 754.18,505.92 755.347,511.42 754,517.5C 751.496,524.347 748.996,531.18 746.5,538C 746.424,540.756 747.757,541.923 750.5,541.5C 753.331,540.921 755.664,539.588 757.5,537.5C 761.061,533.397 763.894,528.73 766,523.5C 769.474,514.243 772.641,504.91 775.5,495.5C 780.284,482.492 785.284,469.492 790.5,456.5C 796.53,452.029 801.863,452.695 806.5,458.5C 806.663,460.857 806.497,463.19 806,465.5C 796.469,492.425 787.136,519.425 778,546.5C 776.159,553.517 771.659,556.85 764.5,556.5C 764.5,555.833 764.167,555.5 763.5,555.5C 762.469,554.645 761.303,553.978 760,553.5C 753.031,556.511 745.864,557.178 738.5,555.5C 729.79,551.757 725.956,545.091 727,535.5C 729.34,529.981 731.173,524.314 732.5,518.5C 733.833,516.833 733.833,515.167 732.5,513.5C 731.866,512.053 730.699,511.387 729,511.5C 725.542,512.286 722.042,512.62 718.5,512.5C 717.5,511.833 716.5,511.167 715.5,510.5C 714.207,509.158 713.374,507.491 713,505.5C 707.068,521.128 701.235,536.795 695.5,552.5C 692.568,555.797 688.901,557.13 684.5,556.5C 684.167,556.5 683.833,556.5 683.5,556.5C 680.586,553.028 677.253,552.861 673.5,556C 667.353,556.899 661.353,556.399 655.5,554.5C 654.035,553.263 652.368,552.263 650.5,551.5C 649.809,549.978 648.642,548.978 647,548.5C 638.407,555.86 628.574,558.194 617.5,555.5C 616.035,554.263 614.368,553.263 612.5,552.5C 611.626,551.475 610.459,550.808 609,550.5C 601.303,556.239 592.803,557.906 583.5,555.5C 572.261,549.305 568.761,539.971 573,527.5C 576.744,516.767 580.577,506.1 584.5,495.5C 587.104,489.022 589.104,482.355 590.5,475.5C 590.768,473.901 590.434,472.568 589.5,471.5C 584.302,468.605 579.302,469.105 574.5,473C 569.845,479.461 566.845,486.628 565.5,494.5C 558.401,512.953 551.568,531.62 545,550.5C 542.383,554.726 538.55,556.726 533.5,556.5C 530.253,555.588 527.92,553.588 526.5,550.5C 531.687,531.938 537.687,513.605 544.5,495.5C 547.833,486.167 551.167,476.833 554.5,467.5C 554.5,467.167 554.5,466.833 554.5,466.5C 555.953,463.647 557.119,460.647 558,457.5C 563.614,452.249 569.28,452.249 575,457.5C 581.69,453.48 588.856,452.48 596.5,454.5C 600.751,456.425 604.417,459.092 607.5,462.5C 609.508,465.861 610.508,469.528 610.5,473.5C 609.108,481.009 607.108,488.342 604.5,495.5C 599.735,507.62 595.235,519.953 591,532.5C 590.333,534.833 590.333,537.167 591,539.5C 591.816,540.823 592.983,541.489 594.5,541.5C 595.959,541.567 597.292,541.234 598.5,540.5C 600.129,539.375 601.629,538.041 603,536.5C 603.388,532.781 604.055,529.114 605,525.5C 609,515.665 612.5,505.665 615.5,495.5C 618.817,485.734 622.65,476.068 627,466.5C 629.167,463 632,460.167 635.5,458C 646.738,451.631 657.571,452.131 668,459.5C 669.5,458 671,456.5 672.5,455C 678.096,451.257 683.096,451.757 687.5,456.5 Z"/></g>
<g><path style="opacity:1" fill="#07bf65" d="M 874.5,456.5 C 875.537,458.738 875.703,461.071 875,463.5C 867,486.167 859,508.833 851,531.5C 850.333,534.167 850.333,536.833 851,539.5C 851.383,540.056 851.883,540.389 852.5,540.5C 854.389,541.742 856.389,541.742 858.5,540.5C 863.041,538.798 866.541,535.798 869,531.5C 872.054,525.224 875.221,519.057 878.5,513C 882.948,510.66 886.948,511.16 890.5,514.5C 888.583,528.429 882.583,540.262 872.5,550C 863.3,556.747 853.3,558.247 842.5,554.5C 841.035,553.263 839.368,552.263 837.5,551.5C 836.809,549.978 835.642,548.978 834,548.5C 824.988,556.45 814.822,558.45 803.5,554.5C 796.7,551.696 792.366,546.696 790.5,539.5C 790.335,536.15 790.502,532.817 791,529.5C 798.015,508.287 805.515,487.287 813.5,466.5C 825.482,452.112 839.482,449.779 855.5,459.5C 859.088,454.039 864.088,451.872 870.5,453C 872.324,453.66 873.657,454.827 874.5,456.5 Z"/></g>
<g><path style="opacity:1" fill="#0abf65" d="M 189.5,458.5 C 190.468,461.445 190.634,464.445 190,467.5C 183.865,491.371 178.365,515.371 173.5,539.5C 175.989,539.759 177.656,538.759 178.5,536.5C 181.669,532.167 184.336,527.5 186.5,522.5C 198.48,501.883 209.98,480.883 221,459.5C 223.691,455.238 227.524,453.238 232.5,453.5C 235.115,454.45 237.115,456.117 238.5,458.5C 237.932,464.643 235.932,470.309 232.5,475.5C 219.361,499.104 206.194,522.771 193,546.5C 185.432,556.191 175.932,558.858 164.5,554.5C 157.619,551.409 154.286,546.076 154.5,538.5C 159.549,512.421 165.049,486.421 171,460.5C 176.394,452.015 182.561,451.349 189.5,458.5 Z"/></g>
<g><path style="opacity:1" fill="#04bd64" d="M 374.5,459.5 C 376.353,464.165 375.02,467.665 370.5,470C 362.5,470.333 354.5,470.667 346.5,471C 343.531,478.74 340.864,486.574 338.5,494.5C 331.598,513.364 324.765,532.364 318,551.5C 315.181,555.493 311.347,557.16 306.5,556.5C 302.084,555.088 300.084,552.088 300.5,547.5C 301.167,544.5 301.833,541.5 302.5,538.5C 305.602,532.198 307.936,525.531 309.5,518.5C 312.541,511.046 315.208,503.38 317.5,495.5C 320.008,489.319 322.341,482.985 324.5,476.5C 325.11,475.609 325.443,474.609 325.5,473.5C 326.404,472.791 326.737,471.791 326.5,470.5C 318.721,470.932 311.054,470.432 303.5,469C 299.736,462.593 301.403,458.26 308.5,456C 329.167,455.333 349.833,455.333 370.5,456C 372.35,456.69 373.684,457.856 374.5,459.5 Z"/></g>
<g><path style="opacity:1" fill="#165ac2" d="M 245.5,463.5 C 243.075,466.589 241.075,469.922 239.5,473.5C 237.167,476.833 234.833,480.167 232.5,483.5C 232.5,480.833 232.5,478.167 232.5,475.5C 235.932,470.309 237.932,464.643 238.5,458.5C 238.435,458.062 238.601,457.728 239,457.5C 241.335,459.4 243.502,461.4 245.5,463.5 Z"/></g>
<g><path style="opacity:1" fill="#145bc7" d="M 687.5,456.5 C 689.404,456.738 690.738,457.738 691.5,459.5C 692.435,462.113 692.602,464.779 692,467.5C 688.526,476.757 685.359,486.09 682.5,495.5C 682.167,495.5 681.833,495.5 681.5,495.5C 679.901,495.768 678.568,495.434 677.5,494.5C 680.561,485.486 683.727,476.486 687,467.5C 688.511,463.82 688.677,460.154 687.5,456.5 Z"/></g>
<g><path style="opacity:1" fill="#5a94fa" d="M 874.5,456.5 C 876.749,457.08 878.415,458.413 879.5,460.5C 879.663,462.857 879.497,465.19 879,467.5C 870.198,492.091 861.365,516.424 852.5,540.5C 851.883,540.389 851.383,540.056 851,539.5C 850.333,536.833 850.333,534.167 851,531.5C 859,508.833 867,486.167 875,463.5C 875.703,461.071 875.537,458.738 874.5,456.5 Z"/></g>
<g><path style="opacity:1" fill="#5b94f9" d="M 189.5,458.5 C 190.833,459.5 192.167,460.5 193.5,461.5C 193.666,465.514 193.499,469.514 193,473.5C 187.85,494.445 183.017,515.445 178.5,536.5C 177.656,538.759 175.989,539.759 173.5,539.5C 178.365,515.371 183.865,491.371 190,467.5C 190.634,464.445 190.468,461.445 189.5,458.5 Z"/></g>
<g><path style="opacity:1" fill="#225a99" d="M 691.5,459.5 C 694.389,460.939 696.056,463.273 696.5,466.5C 693.56,476.322 690.226,485.989 686.5,495.5C 685.167,495.5 683.833,495.5 682.5,495.5C 685.359,486.09 688.526,476.757 692,467.5C 692.602,464.779 692.435,462.113 691.5,459.5 Z"/></g>
<g><path style="opacity:1" fill="#548ffa" d="M 806.5,458.5 C 807.5,459.167 808.5,459.833 809.5,460.5C 810.39,462.782 810.556,465.115 810,467.5C 800.132,495.436 790.466,523.436 781,551.5C 778.728,557.056 774.561,559.723 768.5,559.5C 768.167,559.5 767.833,559.5 767.5,559.5C 766.306,558.728 765.306,557.728 764.5,556.5C 771.659,556.85 776.159,553.517 778,546.5C 787.136,519.425 796.469,492.425 806,465.5C 806.497,463.19 806.663,460.857 806.5,458.5 Z"/></g>
<g><path style="opacity:1" fill="#b0cbfe" d="M 879.5,460.5 C 883.168,462.356 884.334,465.356 883,469.5C 874.126,492.957 865.959,516.624 858.5,540.5C 856.389,541.742 854.389,541.742 852.5,540.5C 861.365,516.424 870.198,492.091 879,467.5C 879.497,465.19 879.663,462.857 879.5,460.5 Z"/></g>
<g><path style="opacity:1" fill="#b1cbfe" d="M 193.5,461.5 C 194.794,462.29 195.961,463.29 197,464.5C 197.667,468.5 197.667,472.5 197,476.5C 192.866,491.702 189.366,507.035 186.5,522.5C 184.336,527.5 181.669,532.167 178.5,536.5C 183.017,515.445 187.85,494.445 193,473.5C 193.499,469.514 193.666,465.514 193.5,461.5 Z"/></g>
<g><path style="opacity:1" fill="#155cc6" d="M 374.5,459.5 C 378.918,460.83 380.585,463.83 379.5,468.5C 379.068,469.71 378.401,470.71 377.5,471.5C 376.244,471.461 375.244,471.961 374.5,473C 366.5,473.333 358.5,473.667 350.5,474C 347.688,481.123 345.021,488.289 342.5,495.5C 340.901,495.768 339.568,495.434 338.5,494.5C 340.864,486.574 343.531,478.74 346.5,471C 354.5,470.667 362.5,470.333 370.5,470C 375.02,467.665 376.353,464.165 374.5,459.5 Z"/></g>
<g><path style="opacity:1" fill="#8d4c81" d="M 549.5,460.5 C 551.949,461.94 553.615,463.94 554.5,466.5C 554.5,466.833 554.5,467.167 554.5,467.5C 553.167,467.5 551.833,467.5 550.5,467.5C 550.552,465.097 550.219,462.764 549.5,460.5 Z"/></g>
<g><path style="opacity:1" fill="#145ac7" d="M 607.5,462.5 C 609.404,462.738 610.738,463.738 611.5,465.5C 613.508,468.861 614.508,472.528 614.5,476.5C 613.704,483.083 612.038,489.416 609.5,495.5C 609.167,495.5 608.833,495.5 608.5,495.5C 607.167,495.5 605.833,495.5 604.5,495.5C 607.108,488.342 609.108,481.009 610.5,473.5C 610.508,469.528 609.508,465.861 607.5,462.5 Z"/></g>
<g><path style="opacity:1" fill="#135ac6" d="M 295.5,466.5 C 298.297,471.086 299.131,476.086 298,481.5C 296.055,485.39 292.888,487.057 288.5,486.5C 286.77,485.974 285.436,484.974 284.5,483.5C 286.989,483.702 289.323,483.202 291.5,482C 295.412,475.901 295.412,469.734 291.5,463.5C 293.129,463.372 294.462,464.372 295.5,466.5 Z"/></g>
<g><path style="opacity:1" fill="#145ac6" d="M 432.5,465.5 C 435.614,470.016 436.781,475.016 436,480.5C 433.921,484.957 430.421,486.957 425.5,486.5C 423.77,485.974 422.436,484.974 421.5,483.5C 423.527,483.662 425.527,483.495 427.5,483C 432.938,478.029 433.938,472.196 430.5,465.5C 430.938,464.494 431.604,464.494 432.5,465.5 Z"/></g>
<g><path style="opacity:1" fill="#245b98" d="M 611.5,465.5 C 616.435,468.702 618.768,473.368 618.5,479.5C 617.481,484.911 616.147,490.244 614.5,495.5C 614.167,495.5 613.833,495.5 613.5,495.5C 612.167,495.5 610.833,495.5 609.5,495.5C 612.038,489.416 613.704,483.083 614.5,476.5C 614.508,472.528 613.508,468.861 611.5,465.5 Z"/></g>
<g><path style="opacity:1" fill="#185dc5" d="M 762.5,466.5 C 764.825,470.282 766.158,474.449 766.5,479C 765.525,484.738 763.859,490.238 761.5,495.5C 761.167,495.5 760.833,495.5 760.5,495.5C 758.833,495.5 757.167,495.5 755.5,495.5C 761.646,486.085 762.979,476.085 759.5,465.5C 759.435,465.062 759.601,464.728 760,464.5C 760.708,465.381 761.542,466.047 762.5,466.5 Z"/></g>
<g><path style="opacity:1" fill="#245c99" d="M 550.5,467.5 C 551.833,467.5 553.167,467.5 554.5,467.5C 551.167,476.833 547.833,486.167 544.5,495.5C 543.167,495.5 541.833,495.5 540.5,495.5C 543.658,486.021 546.991,476.688 550.5,467.5 Z"/></g>
<g><path style="opacity:1" fill="#175dc5" d="M 274.5,471.5 C 263.097,473.649 258.764,480.316 261.5,491.5C 258.556,489.285 256.89,486.285 256.5,482.5C 258.093,471.198 264.093,467.532 274.5,471.5 Z"/></g>
<g><path style="opacity:1" fill="#145bc7" d="M 412.5,472.5 C 406.043,471.975 401.543,474.642 399,480.5C 398.322,484.221 398.489,487.888 399.5,491.5C 395.145,488.274 393.645,483.941 395,478.5C 398.728,469.356 404.561,467.356 412.5,472.5 Z"/></g>
<g><path style="opacity:1" fill="#235a96" d="M 432.5,465.5 C 437.519,469.203 440.186,474.203 440.5,480.5C 440.371,482.216 440.038,483.883 439.5,485.5C 436.707,489.171 433.04,490.338 428.5,489C 427.058,488.623 426.058,487.79 425.5,486.5C 430.421,486.957 433.921,484.957 436,480.5C 436.781,475.016 435.614,470.016 432.5,465.5 Z"/></g>
<g><path style="opacity:1" fill="#2759c5" d="M 545.5,457.5 C 546.833,458.5 548.167,459.5 549.5,460.5C 550.219,462.764 550.552,465.097 550.5,467.5C 546.991,476.688 543.658,486.021 540.5,495.5C 538.517,495.843 537.183,495.176 536.5,493.5C 539.359,484.09 542.526,474.757 546,465.5C 546.602,462.779 546.435,460.113 545.5,457.5 Z"/></g>
<g><path style="opacity:1" fill="#155bc8" d="M 589.5,471.5 C 584.722,471.97 580.556,473.97 577,477.5C 573.809,483.245 571.309,489.245 569.5,495.5C 567.901,495.768 566.568,495.434 565.5,494.5C 566.845,486.628 569.845,479.461 574.5,473C 579.302,469.105 584.302,468.605 589.5,471.5 Z"/></g>
<g><path style="opacity:1" fill="#215a98" d="M 295.5,466.5 C 301.289,470.69 303.456,476.357 302,483.5C 299.917,488.904 296.084,490.737 290.5,489C 289.619,488.292 288.953,487.458 288.5,486.5C 292.888,487.057 296.055,485.39 298,481.5C 299.131,476.086 298.297,471.086 295.5,466.5 Z"/></g>
<g><path style="opacity:1" fill="#235b9a" d="M 762.5,466.5 C 765.559,468.397 767.726,471.064 769,474.5C 770.148,481.802 769.315,488.802 766.5,495.5C 764.833,495.5 763.167,495.5 761.5,495.5C 763.859,490.238 765.525,484.738 766.5,479C 766.158,474.449 764.825,470.282 762.5,466.5 Z"/></g>
<g><path style="opacity:1" fill="#1058ca" d="M 325.5,473.5 C 320.5,473.5 315.5,473.5 310.5,473.5C 309.711,473.217 309.044,472.717 308.5,472C 311.333,471.833 314.167,471.667 317,471.5C 320.252,471.519 323.085,472.186 325.5,473.5 Z"/></g>
<g><path style="opacity:1" fill="#225a9b" d="M 377.5,471.5 C 377.204,473.403 376.537,475.07 375.5,476.5C 368.167,476.5 360.833,476.5 353.5,476.5C 351.777,482.939 349.777,489.272 347.5,495.5C 345.833,495.5 344.167,495.5 342.5,495.5C 345.021,488.289 347.688,481.123 350.5,474C 358.5,473.667 366.5,473.333 374.5,473C 375.244,471.961 376.244,471.461 377.5,471.5 Z"/></g>
<g><path style="opacity:1" fill="#145cc7" d="M 480.5,474.5 C 470.035,475.296 464.035,480.962 462.5,491.5C 460.695,492.237 459.029,493.237 457.5,494.5C 457.842,486.685 460.842,479.851 466.5,474C 471.48,470.524 476.147,470.691 480.5,474.5 Z"/></g>
<g><path style="opacity:1" fill="#1e5bc7" d="M 498.5,463.5 C 499.833,464.5 501.167,465.5 502.5,466.5C 505.336,472.474 506.17,478.807 505,485.5C 503.54,488.748 502.374,492.081 501.5,495.5C 501.167,495.5 500.833,495.5 500.5,495.5C 498.833,495.5 497.167,495.5 495.5,495.5C 502.105,485.296 503.105,474.629 498.5,463.5 Z"/></g>
<g><path style="opacity:1" fill="#155cc7" d="M 657.5,472.5 C 654.074,473.465 650.907,475.132 648,477.5C 644.818,483.211 642.318,489.211 640.5,495.5C 638.517,495.843 637.183,495.176 636.5,493.5C 638.121,486.8 640.621,480.467 644,474.5C 648.049,470.254 652.549,469.587 657.5,472.5 Z"/></g>
<g><path style="opacity:1" fill="#155cc6" d="M 740.5,474.5 C 735.756,474.04 731.756,475.54 728.5,479C 725.637,482.757 723.637,486.923 722.5,491.5C 720.645,492.69 718.812,494.023 717,495.5C 718.105,488.525 720.605,482.025 724.5,476C 728.358,471.931 733.025,470.598 738.5,472C 739.381,472.708 740.047,473.542 740.5,474.5 Z"/></g>
<g><path style="opacity:1" fill="#5893f8" d="M 844.5,472.5 C 838.599,473.549 834.432,476.882 832,482.5C 826.53,498.576 820.864,514.576 815,530.5C 814.874,533.063 814.707,535.396 814.5,537.5C 810.831,535.562 809.664,532.562 811,528.5C 816.939,510.681 823.273,493.015 830,475.5C 834.105,470.446 838.938,469.446 844.5,472.5 Z"/></g>
<g><path style="opacity:1" fill="#215b99" d="M 274.5,471.5 C 275.906,471.973 276.573,472.973 276.5,474.5C 267.513,477.152 263.18,483.152 263.5,492.5C 262.508,492.672 261.842,492.338 261.5,491.5C 258.764,480.316 263.097,473.649 274.5,471.5 Z"/></g>
<g><path style="opacity:1" fill="#215a99" d="M 412.5,472.5 C 413.5,472.833 414.167,473.5 414.5,474.5C 405.295,476.889 400.962,482.889 401.5,492.5C 400.508,492.672 399.842,492.338 399.5,491.5C 398.489,487.888 398.322,484.221 399,480.5C 401.543,474.642 406.043,471.975 412.5,472.5 Z"/></g>
<g><path style="opacity:1" fill="#2e5b99" d="M 502.5,466.5 C 504.527,467.861 506.194,469.527 507.5,471.5C 510.336,479.628 510.003,487.628 506.5,495.5C 504.833,495.5 503.167,495.5 501.5,495.5C 502.374,492.081 503.54,488.748 505,485.5C 506.17,478.807 505.336,472.474 502.5,466.5 Z"/></g>
<g><path style="opacity:1" fill="#235b99" d="M 589.5,471.5 C 590.434,472.568 590.768,473.901 590.5,475.5C 586.77,476.056 583.603,477.722 581,480.5C 578.154,485.206 575.987,490.206 574.5,495.5C 572.833,495.5 571.167,495.5 569.5,495.5C 571.309,489.245 573.809,483.245 577,477.5C 580.556,473.97 584.722,471.97 589.5,471.5 Z"/></g>
<g><path style="opacity:1" fill="#205a9a" d="M 310.5,473.5 C 315.5,473.5 320.5,473.5 325.5,473.5C 325.443,474.609 325.11,475.609 324.5,476.5C 320.818,476.665 317.152,476.499 313.5,476C 312.058,475.623 311.058,474.79 310.5,473.5 Z"/></g>
<g><path style="opacity:1" fill="#215b99" d="M 480.5,474.5 C 481.404,475.209 481.737,476.209 481.5,477.5C 473.843,479.157 469.176,483.824 467.5,491.5C 465.833,491.5 464.167,491.5 462.5,491.5C 464.035,480.962 470.035,475.296 480.5,474.5 Z"/></g>
<g><path style="opacity:1" fill="#235b9a" d="M 657.5,472.5 C 659.262,473.262 660.262,474.596 660.5,476.5C 656.452,476.441 653.285,478.108 651,481.5C 648.474,485.914 646.641,490.58 645.5,495.5C 643.833,495.5 642.167,495.5 640.5,495.5C 642.318,489.211 644.818,483.211 648,477.5C 650.907,475.132 654.074,473.465 657.5,472.5 Z"/></g>
<g><path style="opacity:1" fill="#215a99" d="M 740.5,474.5 C 741.167,474.5 741.5,474.833 741.5,475.5C 738.39,477.666 735.223,479.999 732,482.5C 730.007,484.818 728.841,487.484 728.5,490.5C 727.209,490.263 726.209,490.596 725.5,491.5C 724.5,491.5 723.5,491.5 722.5,491.5C 723.637,486.923 725.637,482.757 728.5,479C 731.756,475.54 735.756,474.04 740.5,474.5 Z"/></g>
<g><path style="opacity:1" fill="#aec9fe" d="M 844.5,472.5 C 846.262,473.262 847.262,474.596 847.5,476.5C 841.069,477.422 836.902,481.089 835,487.5C 828.783,504.316 823.283,521.316 818.5,538.5C 816.901,538.768 815.568,538.434 814.5,537.5C 814.707,535.396 814.874,533.063 815,530.5C 820.864,514.576 826.53,498.576 832,482.5C 834.432,476.882 838.599,473.549 844.5,472.5 Z"/></g>
<g><path style="opacity:1" fill="#335f6f" d="M 414.5,474.5 C 415.658,478.335 417.991,481.335 421.5,483.5C 422.436,484.974 423.77,485.974 425.5,486.5C 426.058,487.79 427.058,488.623 428.5,489C 433.04,490.338 436.707,489.171 439.5,485.5C 438.342,488.989 437.009,492.322 435.5,495.5C 427.833,495.5 420.167,495.5 412.5,495.5C 408.806,494.223 405.139,493.223 401.5,492.5C 400.962,482.889 405.295,476.889 414.5,474.5 Z"/></g>
<g><path style="opacity:1" fill="#335e6e" d="M 590.5,475.5 C 589.104,482.355 587.104,489.022 584.5,495.5C 581.167,495.5 577.833,495.5 574.5,495.5C 575.987,490.206 578.154,485.206 581,480.5C 583.603,477.722 586.77,476.056 590.5,475.5 Z"/></g>
<g><path style="opacity:1" fill="#325e6e" d="M 507.5,471.5 C 512.833,471.5 518.167,471.5 523.5,471.5C 521.402,479.795 518.735,487.795 515.5,495.5C 512.5,495.5 509.5,495.5 506.5,495.5C 510.003,487.628 510.336,479.628 507.5,471.5 Z"/></g>
<g><path style="opacity:1" fill="#215a98" d="M 239.5,473.5 C 237.817,477.636 237.15,481.969 237.5,486.5C 235.833,489.167 234.167,491.833 232.5,494.5C 232.5,491.5 232.5,488.5 232.5,485.5C 232.5,484.833 232.5,484.167 232.5,483.5C 234.833,480.167 237.167,476.833 239.5,473.5 Z"/></g>
<g><path style="opacity:1" fill="#335e6f" d="M 375.5,476.5 C 374.691,483.386 376.024,489.719 379.5,495.5C 368.833,495.5 358.167,495.5 347.5,495.5C 349.777,489.272 351.777,482.939 353.5,476.5C 360.833,476.5 368.167,476.5 375.5,476.5 Z"/></g>
<g><path style="opacity:1" fill="#305d6d" d="M 481.5,477.5 C 482.116,484.201 479.616,489.201 474,492.5C 471.901,491.713 469.734,491.38 467.5,491.5C 469.176,483.824 473.843,479.157 481.5,477.5 Z"/></g>
<g><path style="opacity:1" fill="#335e6e" d="M 660.5,476.5 C 661.629,478.628 661.796,480.961 661,483.5C 659.762,487.635 658.262,491.635 656.5,495.5C 652.833,495.5 649.167,495.5 645.5,495.5C 646.641,490.58 648.474,485.914 651,481.5C 653.285,478.108 656.452,476.441 660.5,476.5 Z"/></g>
<g><path style="opacity:1" fill="#2e5f6d" d="M 741.5,475.5 C 742.854,480.886 741.687,485.886 738,490.5C 737.261,491.574 736.261,492.241 735,492.5C 731.895,491.633 728.728,491.299 725.5,491.5C 726.209,490.596 727.209,490.263 728.5,490.5C 728.841,487.484 730.007,484.818 732,482.5C 735.223,479.999 738.39,477.666 741.5,475.5 Z"/></g>
<g><path style="opacity:1" fill="#fcfdfe" d="M 847.5,476.5 C 848.629,478.628 848.796,480.961 848,483.5C 842.393,499.655 836.393,515.655 830,531.5C 827.267,535.749 823.434,538.083 818.5,538.5C 823.283,521.316 828.783,504.316 835,487.5C 836.902,481.089 841.069,477.422 847.5,476.5 Z"/></g>
<g><path style="opacity:1" fill="#5a93fb" d="M 232.5,475.5 C 232.5,478.167 232.5,480.833 232.5,483.5C 232.5,484.167 232.5,484.833 232.5,485.5C 220.361,507.104 208.194,528.771 196,550.5C 188.539,559.478 179.372,561.811 168.5,557.5C 166.77,556.974 165.436,555.974 164.5,554.5C 175.932,558.858 185.432,556.191 193,546.5C 206.194,522.771 219.361,499.104 232.5,475.5 Z"/></g>
<g><path style="opacity:1" fill="#376573" d="M 237.5,486.5 C 238.559,489.618 239.892,492.618 241.5,495.5C 238.5,495.5 235.5,495.5 232.5,495.5C 232.5,495.167 232.5,494.833 232.5,494.5C 234.167,491.833 235.833,489.167 237.5,486.5 Z"/></g>
<g><path style="opacity:1" fill="#b1cbfe" d="M 232.5,485.5 C 232.5,488.5 232.5,491.5 232.5,494.5C 232.5,494.833 232.5,495.167 232.5,495.5C 230.992,497.181 229.992,499.181 229.5,501.5C 224.269,507.294 220.603,513.961 218.5,521.5C 212.521,530.779 207.021,540.446 202,550.5C 192.878,563.572 181.712,565.905 168.5,557.5C 179.372,561.811 188.539,559.478 196,550.5C 208.194,528.771 220.361,507.104 232.5,485.5 Z"/></g>
<g><path style="opacity:1" fill="#f6fbfb" d="M 232.5,495.5 C 235.5,495.5 238.5,495.5 241.5,495.5C 237.539,497.481 233.539,499.481 229.5,501.5C 229.992,499.181 230.992,497.181 232.5,495.5 Z"/></g>
<g><path style="opacity:1" fill="#fcfefd" d="M 274.5,495.5 C 288.833,495.5 303.167,495.5 317.5,495.5C 315.208,503.38 312.541,511.046 309.5,518.5C 308.395,517.4 307.062,516.733 305.5,516.5C 302.893,512.685 299.226,511.518 294.5,513C 290.957,517.916 287.79,523.083 285,528.5C 273.682,539.451 260.516,543.117 245.5,539.5C 245.056,534.979 245.556,530.312 247,525.5C 250.193,520.318 254.859,517.651 261,517.5C 265.08,518.803 269.246,519.803 273.5,520.5C 282.693,519.151 286.193,513.817 284,504.5C 283.241,502.937 282.074,501.937 280.5,501.5C 279.415,499.413 277.749,498.08 275.5,497.5C 275.167,496.833 274.833,496.167 274.5,495.5 Z"/></g>
<g><path style="opacity:1" fill="#5993fa" d="M 338.5,494.5 C 339.568,495.434 340.901,495.768 342.5,495.5C 335.681,515.146 328.847,534.812 322,554.5C 319.181,558.493 315.347,560.16 310.5,559.5C 308.77,558.974 307.436,557.974 306.5,556.5C 311.347,557.16 315.181,555.493 318,551.5C 324.765,532.364 331.598,513.364 338.5,494.5 Z"/></g>
<g><path style="opacity:1" fill="#b0caff" d="M 342.5,495.5 C 344.167,495.5 345.833,495.5 347.5,495.5C 340.304,516.586 332.804,537.586 325,558.5C 320.335,563.341 315.502,563.674 310.5,559.5C 315.347,560.16 319.181,558.493 322,554.5C 328.847,534.812 335.681,515.146 342.5,495.5 Z"/></g>
<g><path style="opacity:1" fill="#fcfefe" d="M 412.5,495.5 C 420.167,495.5 427.833,495.5 435.5,495.5C 432.559,506.157 428.725,516.49 424,526.5C 412.976,539.121 399.476,543.455 383.5,539.5C 381.093,524.894 387.426,517.561 402.5,517.5C 409.187,522.026 415.354,521.359 421,515.5C 423.832,509.42 422.665,504.42 417.5,500.5C 416.5,499.833 415.5,499.167 414.5,498.5C 413.599,497.71 412.932,496.71 412.5,495.5 Z"/></g>
<g><path style="opacity:1" fill="#fbfdfd" d="M 506.5,495.5 C 509.5,495.5 512.5,495.5 515.5,495.5C 512.363,506.41 508.53,517.076 504,527.5C 502.209,531.439 499.709,534.772 496.5,537.5C 499.203,531.559 501.203,525.392 502.5,519C 502.582,514.239 500.915,510.239 497.5,507C 501.478,503.864 504.478,500.031 506.5,495.5 Z"/></g>
<g><path style="opacity:1" fill="#adc9fd" d="M 540.5,495.5 C 541.833,495.5 543.167,495.5 544.5,495.5C 537.687,513.605 531.687,531.938 526.5,550.5C 524.796,557.036 520.63,561.036 514,562.5C 511.601,562.387 509.768,561.387 508.5,559.5C 513.55,559.726 517.383,557.726 520,553.5C 526.937,534.187 533.771,514.854 540.5,495.5 Z"/></g>
<g><path style="opacity:1" fill="#5993fa" d="M 565.5,494.5 C 566.568,495.434 567.901,495.768 569.5,495.5C 562.71,516.375 555.043,536.875 546.5,557C 543.794,558.908 540.794,559.741 537.5,559.5C 535.596,559.262 534.262,558.262 533.5,556.5C 538.55,556.726 542.383,554.726 545,550.5C 551.568,531.62 558.401,512.953 565.5,494.5 Z"/></g>
<g><path style="opacity:1" fill="#b0cbff" d="M 569.5,495.5 C 571.167,495.5 572.833,495.5 574.5,495.5C 567.377,517.374 559.377,538.874 550.5,560C 547.119,562.245 543.452,562.912 539.5,562C 538.619,561.292 537.953,560.458 537.5,559.5C 540.794,559.741 543.794,558.908 546.5,557C 555.043,536.875 562.71,516.375 569.5,495.5 Z"/></g>
<g><path style="opacity:1" fill="#5893fa" d="M 604.5,495.5 C 605.833,495.5 607.167,495.5 608.5,495.5C 604.308,508.91 599.808,522.243 595,535.5C 594.505,537.473 594.338,539.473 594.5,541.5C 592.983,541.489 591.816,540.823 591,539.5C 590.333,537.167 590.333,534.833 591,532.5C 595.235,519.953 599.735,507.62 604.5,495.5 Z"/></g>
<g><path style="opacity:1" fill="#afcafe" d="M 608.5,495.5 C 608.833,495.5 609.167,495.5 609.5,495.5C 610.833,495.5 612.167,495.5 613.5,495.5C 608.702,510.562 603.702,525.562 598.5,540.5C 597.292,541.234 595.959,541.567 594.5,541.5C 594.338,539.473 594.505,537.473 595,535.5C 599.808,522.243 604.308,508.91 608.5,495.5 Z"/></g>
<g><path style="opacity:1" fill="#5990f9" d="M 636.5,493.5 C 637.183,495.176 638.517,495.843 640.5,495.5C 637.183,504.808 633.85,514.141 630.5,523.5C 631.524,524.852 632.524,526.185 633.5,527.5C 632.417,531.085 631.751,534.751 631.5,538.5C 626.974,538.309 624.308,535.975 623.5,531.5C 627.068,518.46 631.401,505.793 636.5,493.5 Z"/></g>
<g><path style="opacity:1" fill="#b0caff" d="M 640.5,495.5 C 642.167,495.5 643.833,495.5 645.5,495.5C 641.676,506.314 637.676,516.981 633.5,527.5C 632.524,526.185 631.524,524.852 630.5,523.5C 633.85,514.141 637.183,504.808 640.5,495.5 Z"/></g>
<g><path style="opacity:1" fill="#fbfdfe" d="M 645.5,495.5 C 649.167,495.5 652.833,495.5 656.5,495.5C 652.695,507.748 648.195,519.748 643,531.5C 640.267,535.749 636.434,538.083 631.5,538.5C 631.751,534.751 632.417,531.085 633.5,527.5C 637.676,516.981 641.676,506.314 645.5,495.5 Z"/></g>
<g><path style="opacity:1" fill="#5993fa" d="M 677.5,494.5 C 678.568,495.434 679.901,495.768 681.5,495.5C 676.5,510.847 671.167,525.847 665.5,540.5C 664.883,540.389 664.383,540.056 664,539.5C 663.333,536.833 663.333,534.167 664,531.5C 668.235,518.953 672.735,506.62 677.5,494.5 Z"/></g>
<g><path style="opacity:1" fill="#afcafe" d="M 681.5,495.5 C 681.833,495.5 682.167,495.5 682.5,495.5C 683.833,495.5 685.167,495.5 686.5,495.5C 680.898,510.307 675.898,525.307 671.5,540.5C 669.389,541.742 667.389,541.742 665.5,540.5C 671.167,525.847 676.5,510.847 681.5,495.5 Z"/></g>
<g><path style="opacity:1" fill="#fbfdfd" d="M 686.5,495.5 C 689.5,495.5 692.5,495.5 695.5,495.5C 692.091,507.891 687.591,519.891 682,531.5C 679.541,535.798 676.041,538.798 671.5,540.5C 675.898,525.307 680.898,510.307 686.5,495.5 Z"/></g>
<g><path style="opacity:1" fill="#fbfdfd" d="M 766.5,495.5 C 769.5,495.5 772.5,495.5 775.5,495.5C 772.641,504.91 769.474,514.243 766,523.5C 763.894,528.73 761.061,533.397 757.5,537.5C 759.37,531.222 761.037,524.889 762.5,518.5C 762.441,514.216 761.107,510.383 758.5,507C 761.762,503.573 764.428,499.74 766.5,495.5 Z"/></g>
<g><path style="opacity:1" fill="#5f95fc" d="M 275.5,497.5 C 277.749,498.08 279.415,499.413 280.5,501.5C 282.756,510.662 279.256,515.995 270,517.5C 266.759,517.366 263.925,516.366 261.5,514.5C 274.407,515.279 279.073,509.612 275.5,497.5 Z"/></g>
<g><path style="opacity:1" fill="#b1cbff" d="M 417.5,500.5 C 422.665,504.42 423.832,509.42 421,515.5C 415.354,521.359 409.187,522.026 402.5,517.5C 415.031,518.308 420.031,512.642 417.5,500.5 Z"/></g>
<g><path style="opacity:1" fill="#5a94fa" d="M 495.5,495.5 C 497.167,495.5 498.833,495.5 500.5,495.5C 498.757,498.75 496.423,501.584 493.5,504C 496.915,507.239 498.582,511.239 498.5,516C 495.933,524.535 493.266,533.035 490.5,541.5C 487.512,541.845 486.179,540.512 486.5,537.5C 489.474,529.412 492.14,521.246 494.5,513C 494.582,508.239 492.915,504.239 489.5,501C 491.37,498.96 493.37,497.127 495.5,495.5 Z"/></g>
<g><path style="opacity:1" fill="#5993fb" d="M 755.5,495.5 C 757.167,495.5 758.833,495.5 760.5,495.5C 758.878,498.568 756.878,501.402 754.5,504C 756.959,507.252 758.292,510.918 758.5,515C 756.534,524.063 753.867,532.897 750.5,541.5C 747.757,541.923 746.424,540.756 746.5,538C 748.996,531.18 751.496,524.347 754,517.5C 755.347,511.42 754.18,505.92 750.5,501C 752.293,499.221 753.959,497.388 755.5,495.5 Z"/></g>
<g><path style="opacity:1" fill="#b2ccfe" d="M 500.5,495.5 C 500.833,495.5 501.167,495.5 501.5,495.5C 503.167,495.5 504.833,495.5 506.5,495.5C 504.478,500.031 501.478,503.864 497.5,507C 500.915,510.239 502.582,514.239 502.5,519C 501.203,525.392 499.203,531.559 496.5,537.5C 495.147,539.738 493.147,541.071 490.5,541.5C 493.266,533.035 495.933,524.535 498.5,516C 498.582,511.239 496.915,507.239 493.5,504C 496.423,501.584 498.757,498.75 500.5,495.5 Z"/></g>
<g><path style="opacity:1" fill="#b0cbfe" d="M 760.5,495.5 C 760.833,495.5 761.167,495.5 761.5,495.5C 763.167,495.5 764.833,495.5 766.5,495.5C 764.428,499.74 761.762,503.573 758.5,507C 761.107,510.383 762.441,514.216 762.5,518.5C 761.037,524.889 759.37,531.222 757.5,537.5C 755.664,539.588 753.331,540.921 750.5,541.5C 753.867,532.897 756.534,524.063 758.5,515C 758.292,510.918 756.959,507.252 754.5,504C 756.878,501.402 758.878,498.568 760.5,495.5 Z"/></g>
<g><path style="opacity:1" fill="#5994f8" d="M 261.5,514.5 C 251.695,513.312 245.195,517.312 242,526.5C 241.196,530.204 241.696,533.704 243.5,537C 243.272,537.399 242.938,537.565 242.5,537.5C 236.237,530.923 235.903,523.923 241.5,516.5C 247.786,510.763 254.453,510.097 261.5,514.5 Z"/></g>
<g><path style="opacity:1" fill="#5a94fa" d="M 414.5,498.5 C 415.5,499.167 416.5,499.833 417.5,500.5C 420.031,512.642 415.031,518.308 402.5,517.5C 397.108,513.793 391.442,513.626 385.5,517C 379.569,522.7 377.903,529.534 380.5,537.5C 378.827,536.657 377.66,535.324 377,533.5C 373.532,520.971 378.199,513.638 391,511.5C 395.08,512.803 399.246,513.803 403.5,514.5C 406.433,514.534 409.1,513.701 411.5,512C 414.126,507.908 415.126,503.408 414.5,498.5 Z"/></g>
<g><path style="opacity:1" fill="#b0cafe" d="M 455.5,511.5 C 456.609,511.557 457.609,511.89 458.5,512.5C 459.167,513.167 459.833,513.833 460.5,514.5C 459.21,515.058 458.377,516.058 458,517.5C 453.333,530.833 448.667,544.167 444,557.5C 439.295,563.198 434.129,563.865 428.5,559.5C 433.347,560.16 437.181,558.493 440,554.5C 445.27,540.187 450.437,525.854 455.5,511.5 Z"/></g>
<g><path style="opacity:1" fill="#6096fc" d="M 472.5,513.5 C 472.082,514.222 471.416,514.722 470.5,515C 467.854,515.497 465.187,515.664 462.5,515.5C 461.833,515.167 461.167,514.833 460.5,514.5C 459.833,513.833 459.167,513.167 458.5,512.5C 462.042,512.62 465.542,512.286 469,511.5C 470.699,511.387 471.866,512.053 472.5,513.5 Z"/></g>
<g><path style="opacity:1" fill="#f2f8fb" d="M 613.5,495.5 C 613.833,495.5 614.167,495.5 614.5,495.5C 614.833,495.5 615.167,495.5 615.5,495.5C 612.5,505.665 609,515.665 605,525.5C 604.055,529.114 603.388,532.781 603,536.5C 601.629,538.041 600.129,539.375 598.5,540.5C 603.702,525.562 608.702,510.562 613.5,495.5 Z"/></g>
<g><path style="opacity:1" fill="#b0cafe" d="M 715.5,510.5 C 716.5,511.167 717.5,511.833 718.5,512.5C 719.167,513.167 719.833,513.833 720.5,514.5C 719.883,514.611 719.383,514.944 719,515.5C 714.129,529.948 708.962,544.281 703.5,558.5C 698.629,563.301 693.629,563.634 688.5,559.5C 692.901,560.13 696.568,558.797 699.5,555.5C 705.629,540.78 710.962,525.78 715.5,510.5 Z"/></g>
<g><path style="opacity:1" fill="#6096fd" d="M 732.5,513.5 C 729.829,515.118 726.829,515.785 723.5,515.5C 722.391,515.443 721.391,515.11 720.5,514.5C 719.833,513.833 719.167,513.167 718.5,512.5C 722.042,512.62 725.542,512.286 729,511.5C 730.699,511.387 731.866,512.053 732.5,513.5 Z"/></g>
<g><path style="opacity:1" fill="#b0cafe" d="M 280.5,501.5 C 282.074,501.937 283.241,502.937 284,504.5C 286.193,513.817 282.693,519.151 273.5,520.5C 269.246,519.803 265.08,518.803 261,517.5C 254.859,517.651 250.193,520.318 247,525.5C 245.556,530.312 245.056,534.979 245.5,539.5C 243.973,539.573 242.973,538.906 242.5,537.5C 242.938,537.565 243.272,537.399 243.5,537C 241.696,533.704 241.196,530.204 242,526.5C 245.195,517.312 251.695,513.312 261.5,514.5C 263.925,516.366 266.759,517.366 270,517.5C 279.256,515.995 282.756,510.662 280.5,501.5 Z"/></g>
<g><path style="opacity:1" fill="#b1cbfe" d="M 402.5,517.5 C 387.426,517.561 381.093,524.894 383.5,539.5C 381.973,539.573 380.973,538.906 380.5,537.5C 377.903,529.534 379.569,522.7 385.5,517C 391.442,513.626 397.108,513.793 402.5,517.5 Z"/></g>
<g><path style="opacity:1" fill="#afcdf9" d="M 472.5,513.5 C 473.833,515.167 473.833,516.833 472.5,518.5C 470.143,518.663 467.81,518.497 465.5,518C 464.058,517.623 463.058,516.79 462.5,515.5C 465.187,515.664 467.854,515.497 470.5,515C 471.416,514.722 472.082,514.222 472.5,513.5 Z"/></g>
<g><path style="opacity:1" fill="#b0cbfd" d="M 732.5,513.5 C 733.833,515.167 733.833,516.833 732.5,518.5C 730.143,518.663 727.81,518.497 725.5,518C 724.619,517.292 723.953,516.458 723.5,515.5C 726.829,515.785 729.829,515.118 732.5,513.5 Z"/></g>
<g><path style="opacity:1" fill="#5c94fb" d="M 890.5,514.5 C 892.167,515.5 893.5,516.833 894.5,518.5C 892.066,531.869 886.066,543.369 876.5,553C 867.3,559.747 857.3,561.247 846.5,557.5C 844.77,556.974 843.436,555.974 842.5,554.5C 853.3,558.247 863.3,556.747 872.5,550C 882.583,540.262 888.583,528.429 890.5,514.5 Z"/></g>
<g><path style="opacity:1" fill="#5c95fa" d="M 305.5,516.5 C 307.062,516.733 308.395,517.4 309.5,518.5C 307.936,525.531 305.602,532.198 302.5,538.5C 285.306,557.385 264.306,563.385 239.5,556.5C 238.527,556.013 237.527,555.513 236.5,555C 235.262,554.31 235.262,553.81 236.5,553.5C 253.286,558.843 269.286,557.01 284.5,548C 296.123,540.59 303.123,530.09 305.5,516.5 Z"/></g>
<g><path style="opacity:1" fill="#4c8afa" d="M 455.5,511.5 C 450.437,525.854 445.27,540.187 440,554.5C 437.181,558.493 433.347,560.16 428.5,559.5C 427.167,558.833 425.833,558.167 424.5,557.5C 424.5,557.167 424.5,556.833 424.5,556.5C 429.347,557.16 433.181,555.493 436,551.5C 441.215,536.684 446.715,522.017 452.5,507.5C 453.524,508.852 454.524,510.185 455.5,511.5 Z"/></g>
<g><path style="opacity:1" fill="#4988fa" d="M 715.5,510.5 C 710.962,525.78 705.629,540.78 699.5,555.5C 696.568,558.797 692.901,560.13 688.5,559.5C 688.167,559.5 687.833,559.5 687.5,559.5C 686.306,558.728 685.306,557.728 684.5,556.5C 688.901,557.13 692.568,555.797 695.5,552.5C 701.235,536.795 707.068,521.128 713,505.5C 713.374,507.491 714.207,509.158 715.5,510.5 Z"/></g>
<g><path style="opacity:1" fill="#b3ccff" d="M 894.5,518.5 C 898.254,519.828 899.421,522.494 898,526.5C 894.047,539.944 886.547,550.777 875.5,559C 868.839,562.232 861.839,563.232 854.5,562C 851.316,561.246 848.649,559.746 846.5,557.5C 857.3,561.247 867.3,559.747 876.5,553C 886.066,543.369 892.066,531.869 894.5,518.5 Z"/></g>
<g><path style="opacity:1" fill="#4b89fa" d="M 536.5,493.5 C 537.183,495.176 538.517,495.843 540.5,495.5C 533.771,514.854 526.937,534.187 520,553.5C 517.383,557.726 513.55,559.726 508.5,559.5C 508.167,559.5 507.833,559.5 507.5,559.5C 506.306,558.728 505.306,557.728 504.5,556.5C 509.55,556.726 513.383,554.726 516,550.5C 522.765,531.364 529.598,512.364 536.5,493.5 Z"/></g>
<g><path style="opacity:1" fill="#aecafd" d="M 809.5,460.5 C 812.044,461.708 813.378,463.708 813.5,466.5C 805.515,487.287 798.015,508.287 791,529.5C 790.502,532.817 790.335,536.15 790.5,539.5C 788.192,546.574 785.192,553.407 781.5,560C 776.845,563.471 772.512,563.304 768.5,559.5C 774.561,559.723 778.728,557.056 781,551.5C 790.466,523.436 800.132,495.436 810,467.5C 810.556,465.115 810.39,462.782 809.5,460.5 Z"/></g>
<g><path style="opacity:1" fill="#b2ccfe" d="M 302.5,538.5 C 301.833,541.5 301.167,544.5 300.5,547.5C 281.959,563.614 261.626,566.614 239.5,556.5C 264.306,563.385 285.306,557.385 302.5,538.5 Z"/></g>
<g><path style="opacity:1" fill="#5e95fc" d="M 650.5,551.5 C 641.762,559.512 631.762,561.512 620.5,557.5C 619.391,557.443 618.391,557.11 617.5,556.5C 617.5,556.167 617.5,555.833 617.5,555.5C 628.574,558.194 638.407,555.86 647,548.5C 648.642,548.978 649.809,549.978 650.5,551.5 Z"/></g>
<g><path style="opacity:1" fill="#5d95fb" d="M 837.5,551.5 C 828.762,559.512 818.762,561.512 807.5,557.5C 805.596,557.262 804.262,556.262 803.5,554.5C 814.822,558.45 824.988,556.45 834,548.5C 835.642,548.978 836.809,549.978 837.5,551.5 Z"/></g>
<g><path style="opacity:1" fill="#5c94fb" d="M 612.5,552.5 C 605.352,558.986 597.019,560.986 587.5,558.5C 585.77,557.974 584.436,556.974 583.5,555.5C 592.803,557.906 601.303,556.239 609,550.5C 610.459,550.808 611.626,551.475 612.5,552.5 Z"/></g>
<g><path style="opacity:1" fill="#5d95fa" d="M 419.5,553.5 C 414.414,556.806 408.748,558.639 402.5,559C 393.94,560.112 385.607,559.279 377.5,556.5C 375.118,555.649 373.118,554.316 371.5,552.5C 387.072,558.29 402.405,557.624 417.5,550.5C 418.425,551.357 419.092,552.357 419.5,553.5 Z"/></g>
<g><path style="opacity:1" fill="#b1ccfd" d="M 650.5,551.5 C 652.368,552.263 654.035,553.263 655.5,554.5C 649.024,559.327 641.691,561.994 633.5,562.5C 628.39,562.579 624.057,560.912 620.5,557.5C 631.762,561.512 641.762,559.512 650.5,551.5 Z"/></g>
<g><path style="opacity:1" fill="#b1ccfd" d="M 837.5,551.5 C 839.368,552.263 841.035,553.263 842.5,554.5C 836.024,559.327 828.691,561.994 820.5,562.5C 815.39,562.579 811.057,560.912 807.5,557.5C 818.762,561.512 828.762,559.512 837.5,551.5 Z"/></g>
<g><path style="opacity:1" fill="#5e95fc" d="M 503.5,556.5 C 496.432,559.627 489.098,560.294 481.5,558.5C 480.128,557.488 478.795,556.488 477.5,555.5C 485.059,557.259 492.393,556.592 499.5,553.5C 500.901,554.521 502.235,555.521 503.5,556.5 Z"/></g>
<g><path style="opacity:1" fill="#b2ccfe" d="M 612.5,552.5 C 614.368,553.263 616.035,554.263 617.5,555.5C 617.5,555.833 617.5,556.167 617.5,556.5C 611.987,559.893 605.987,561.893 599.5,562.5C 594.786,562.929 590.786,561.596 587.5,558.5C 597.019,560.986 605.352,558.986 612.5,552.5 Z"/></g>
<g><path style="opacity:1" fill="#5b94fa" d="M 763.5,555.5 C 759.937,558.298 755.77,559.631 751,559.5C 747.348,559.519 743.848,558.852 740.5,557.5C 739.5,557.167 738.833,556.5 738.5,555.5C 745.864,557.178 753.031,556.511 760,553.5C 761.303,553.978 762.469,554.645 763.5,555.5 Z"/></g>
<g><path style="opacity:1" fill="#b2ccfd" d="M 419.5,553.5 C 421.001,554.752 422.668,555.752 424.5,556.5C 424.5,556.833 424.5,557.167 424.5,557.5C 412.18,562.146 399.513,563.313 386.5,561C 383.128,559.981 380.128,558.481 377.5,556.5C 385.607,559.279 393.94,560.112 402.5,559C 408.748,558.639 414.414,556.806 419.5,553.5 Z"/></g>
<g><path style="opacity:1" fill="#5e96fb" d="M 683.5,556.5 C 675.677,560.1 667.677,560.434 659.5,557.5C 657.77,556.974 656.436,555.974 655.5,554.5C 661.353,556.399 667.353,556.899 673.5,556C 677.253,552.861 680.586,553.028 683.5,556.5 Z"/></g>
<g><path style="opacity:1" fill="#b4cdff" d="M 503.5,556.5 C 503.833,556.5 504.167,556.5 504.5,556.5C 505.306,557.728 506.306,558.728 507.5,559.5C 498.549,563.806 489.882,563.472 481.5,558.5C 489.098,560.294 496.432,559.627 503.5,556.5 Z"/></g>
<g><path style="opacity:1" fill="#b2ccfe" d="M 763.5,555.5 C 764.167,555.5 764.5,555.833 764.5,556.5C 765.306,557.728 766.306,558.728 767.5,559.5C 760.38,562.76 753.046,563.26 745.5,561C 743.416,560.303 741.749,559.136 740.5,557.5C 743.848,558.852 747.348,559.519 751,559.5C 755.77,559.631 759.937,558.298 763.5,555.5 Z"/></g>
<g><path style="opacity:1" fill="#b5ceff" d="M 683.5,556.5 C 683.833,556.5 684.167,556.5 684.5,556.5C 685.306,557.728 686.306,558.728 687.5,559.5C 680.044,562.778 672.377,563.278 664.5,561C 662.416,560.303 660.749,559.136 659.5,557.5C 667.677,560.434 675.677,560.1 683.5,556.5 Z"/></g>
<g><path style="opacity:1" fill="#f24d3c" d="M 592.5,580.5 C 595.275,585.829 596.108,591.496 595,597.5C 591.123,610.463 586.457,623.13 581,635.5C 572.26,646.946 560.76,651.28 546.5,648.5C 545.486,647.326 544.153,646.66 542.5,646.5C 541.312,645.636 540.145,644.636 539,643.5C 535.284,651.976 531.95,660.643 529,669.5C 526.383,672.985 522.883,674.652 518.5,674.5C 512.944,672.39 510.777,668.39 512,662.5C 522.273,632.348 532.939,602.348 544,572.5C 548.546,568.251 553.713,567.418 559.5,570C 560.46,571.419 561.293,572.919 562,574.5C 563.171,573.107 564.671,572.273 566.5,572C 576.862,570.245 585.529,573.078 592.5,580.5 Z"/></g>
<g><path style="opacity:1" fill="#f24d3b" d="M 402.5,577.5 C 409.235,590.473 407.235,601.973 396.5,612C 389.841,615.56 382.841,616.394 375.5,614.5C 374.089,612.461 372.089,611.461 369.5,611.5C 365.843,622.804 362.177,634.137 358.5,645.5C 359.095,647.761 360.429,649.428 362.5,650.5C 363.795,651.488 365.128,652.488 366.5,653.5C 369.092,656.456 372.426,657.789 376.5,657.5C 381.695,657.537 386.361,656.037 390.5,653C 393.52,642.105 396.853,631.272 400.5,620.5C 402.02,618.11 403.02,615.443 403.5,612.5C 406.23,605.977 408.563,599.31 410.5,592.5C 418.819,573.332 432.819,567.499 452.5,575C 453.667,576.167 454.833,577.333 456,578.5C 461.155,569.635 467.655,568.302 475.5,574.5C 475.656,578.582 475.156,582.582 474,586.5C 466.136,607.757 458.47,629.091 451,650.5C 450.333,652.833 450.333,655.167 451,657.5C 451.816,658.823 452.983,659.489 454.5,659.5C 456.099,659.768 457.432,659.434 458.5,658.5C 462.672,656.842 466.172,654.175 469,650.5C 472.47,645.226 475.136,639.56 477,633.5C 481.878,628.225 486.711,628.225 491.5,633.5C 488.598,647.472 481.931,659.305 471.5,669C 462.676,674.591 453.342,675.758 443.5,672.5C 443.167,672.5 442.833,672.5 442.5,672.5C 440.858,671.197 439.191,669.864 437.5,668.5C 436.878,667.373 436.045,666.373 435,665.5C 425.343,674.266 414.51,676.266 402.5,671.5C 401.609,670.89 400.609,670.557 399.5,670.5C 398.855,669.188 397.855,668.188 396.5,667.5C 385.203,675.108 373.203,676.442 360.5,671.5C 360.158,670.662 359.492,670.328 358.5,670.5C 357.101,669.11 355.434,668.11 353.5,667.5C 352.855,666.188 351.855,665.188 350.5,664.5C 339.096,676.384 325.429,680.051 309.5,675.5C 295.703,667.262 292.536,655.929 300,641.5C 308.127,632.191 318.294,628.691 330.5,631C 334.655,631.718 338.488,633.218 342,635.5C 346,624.167 350,612.833 354,601.5C 354.881,598.114 353.714,595.78 350.5,594.5C 349.833,593.167 348.833,592.167 347.5,591.5C 342.955,588.374 337.955,587.207 332.5,588C 327.977,589.852 323.977,592.518 320.5,596C 319.207,596.49 317.873,596.657 316.5,596.5C 311.687,593.873 309.853,589.873 311,584.5C 322.257,570.943 336.091,567.776 352.5,575C 355.944,576.802 359.111,578.969 362,581.5C 365.156,579.014 368.322,576.514 371.5,574C 380.031,569.831 388.698,569.497 397.5,573C 399.037,574.707 400.704,576.207 402.5,577.5 Z"/></g>
<g><path style="opacity:1" fill="#f24d3c" d="M 665.5,574.5 C 666.39,576.782 666.556,579.115 666,581.5C 657.47,604.757 649.136,628.091 641,651.5C 639.919,654.694 640.753,657.027 643.5,658.5C 645.167,659.833 646.833,659.833 648.5,658.5C 651.809,657.758 654.643,656.091 657,653.5C 661.561,646.21 665.728,638.71 669.5,631C 671.034,630.077 672.701,629.577 674.5,629.5C 680.579,631.807 686.912,633.473 693.5,634.5C 695.383,634.124 696.883,633.124 698,631.5C 702.057,621.329 705.724,610.996 709,600.5C 709.78,598.613 709.613,596.946 708.5,595.5C 708.573,593.973 707.906,592.973 706.5,592.5C 701.498,588.326 696.665,588.659 692,593.5C 690.82,597.217 689.487,600.884 688,604.5C 685.695,606.93 682.862,607.93 679.5,607.5C 673.193,604.546 670.86,599.546 672.5,592.5C 680.315,575.094 693.648,568.594 712.5,573C 717.256,575.269 721.59,578.103 725.5,581.5C 730.298,590.147 730.798,599.147 727,608.5C 724.331,616.511 721.665,624.511 719,632.5C 715.868,637.297 712.368,641.797 708.5,646C 710.576,649.219 712.076,652.719 713,656.5C 713.995,655.934 714.828,655.267 715.5,654.5C 716.492,654.672 717.158,654.338 717.5,653.5C 721.086,651.42 724.253,648.754 727,645.5C 728.871,640.919 731.371,636.752 734.5,633C 738.923,631.882 742.59,633.049 745.5,636.5C 743.024,649.805 736.024,659.972 724.5,667C 719.425,669.078 714.425,671.244 709.5,673.5C 706.568,681.128 703.735,688.795 701,696.5C 692.069,710.534 679.569,715.201 663.5,710.5C 651.981,703.63 648.315,693.63 652.5,680.5C 653.488,679.205 654.488,677.872 655.5,676.5C 660.193,672.153 665.527,668.819 671.5,666.5C 678.079,664.689 684.746,663.189 691.5,662C 692.406,660.301 692.739,658.467 692.5,656.5C 692.762,655.022 692.429,653.689 691.5,652.5C 685.627,654.069 679.627,654.902 673.5,655C 664.513,670.998 651.18,676.831 633.5,672.5C 633.167,672.5 632.833,672.5 632.5,672.5C 631.564,671.026 630.23,670.026 628.5,669.5C 627.542,668.038 626.376,666.705 625,665.5C 616.143,673.757 605.976,676.09 594.5,672.5C 584.756,668.022 580.422,660.355 581.5,649.5C 581.963,646.779 582.629,644.112 583.5,641.5C 589.427,626.385 594.761,611.052 599.5,595.5C 607.136,574.682 621.47,567.849 642.5,575C 643.667,576.167 644.833,577.333 646,578.5C 651.296,569.777 657.796,568.444 665.5,574.5 Z"/></g>
<g><path style="opacity:1" fill="#688ef5" d="M 475.5,574.5 C 476.833,575.5 478.167,576.5 479.5,577.5C 479.664,580.187 479.497,582.854 479,585.5C 471.197,607.909 463.197,630.243 455,652.5C 454.503,654.81 454.337,657.143 454.5,659.5C 452.983,659.489 451.816,658.823 451,657.5C 450.333,655.167 450.333,652.833 451,650.5C 458.47,629.091 466.136,607.757 474,586.5C 475.156,582.582 475.656,578.582 475.5,574.5 Z"/></g>
<g><path style="opacity:1" fill="#668ff6" d="M 665.5,574.5 C 667.141,575.147 668.474,576.147 669.5,577.5C 670.39,579.782 670.556,582.115 670,584.5C 661.034,609.238 652.201,633.905 643.5,658.5C 640.753,657.027 639.919,654.694 641,651.5C 649.136,628.091 657.47,604.757 666,581.5C 666.556,579.115 666.39,576.782 665.5,574.5 Z"/></g>
<g><path style="opacity:1" fill="#afcafe" d="M 669.5,577.5 C 670.794,578.29 671.961,579.29 673,580.5C 673.497,584.524 673.331,588.524 672.5,592.5C 663.932,614.196 655.932,636.196 648.5,658.5C 646.833,659.833 645.167,659.833 643.5,658.5C 652.201,633.905 661.034,609.238 670,584.5C 670.556,582.115 670.39,579.782 669.5,577.5 Z"/></g>
<g><path style="opacity:1" fill="#b0cafe" d="M 479.5,577.5 C 483.314,580.152 484.481,583.819 483,588.5C 474.724,611.831 466.557,635.164 458.5,658.5C 457.432,659.434 456.099,659.768 454.5,659.5C 454.337,657.143 454.503,654.81 455,652.5C 463.197,630.243 471.197,607.909 479,585.5C 479.497,582.854 479.664,580.187 479.5,577.5 Z"/></g>
<g><path style="opacity:1" fill="#6d8ff2" d="M 402.5,577.5 C 407.463,581.082 410.129,586.082 410.5,592.5C 408.563,599.31 406.23,605.977 403.5,612.5C 397.099,617.968 389.765,619.968 381.5,618.5C 380.833,618.167 380.167,617.833 379.5,617.5C 378.167,616.5 376.833,615.5 375.5,614.5C 382.841,616.394 389.841,615.56 396.5,612C 407.235,601.973 409.235,590.473 402.5,577.5 Z"/></g>
<g><path style="opacity:1" fill="#698ef4" d="M 592.5,580.5 C 594.017,580.511 595.184,581.177 596,582.5C 598.863,586.38 600.03,590.713 599.5,595.5C 594.761,611.052 589.427,626.385 583.5,641.5C 574.387,650.864 563.387,654.197 550.5,651.5C 549.167,650.833 547.833,650.167 546.5,649.5C 546.5,649.167 546.5,648.833 546.5,648.5C 560.76,651.28 572.26,646.946 581,635.5C 586.457,623.13 591.123,610.463 595,597.5C 596.108,591.496 595.275,585.829 592.5,580.5 Z"/></g>
<g><path style="opacity:1" fill="#6c8df1" d="M 389.5,589.5 C 385.2,590.467 382.533,593.133 381.5,597.5C 377.411,596.402 376.577,594.068 379,590.5C 382.413,587.114 385.913,586.78 389.5,589.5 Z"/></g>
<g><path style="opacity:1" fill="#648ff7" d="M 573.5,590.5 C 568.26,589.538 564.093,591.205 561,595.5C 557.273,604.681 553.939,614.015 551,623.5C 550.444,625.885 550.61,628.218 551.5,630.5C 548.324,628.821 546.657,626.154 546.5,622.5C 549.5,612.334 553,602.334 557,592.5C 560.788,587.847 565.622,586.347 571.5,588C 572.381,588.708 573.047,589.542 573.5,590.5 Z"/></g>
<g><path style="opacity:1" fill="#668ff6" d="M 725.5,581.5 C 727.167,582.5 728.5,583.833 729.5,585.5C 733.274,591.601 734.441,598.268 733,605.5C 729.667,615.5 726.333,625.5 723,635.5C 720.42,640.084 717.087,644.084 713,647.5C 712.993,650.042 713.826,652.376 715.5,654.5C 714.828,655.267 713.995,655.934 713,656.5C 712.076,652.719 710.576,649.219 708.5,646C 712.368,641.797 715.868,637.297 719,632.5C 721.665,624.511 724.331,616.511 727,608.5C 730.798,599.147 730.298,590.147 725.5,581.5 Z"/></g>
<g><path style="opacity:1" fill="#6d92f4" d="M 347.5,591.5 C 343.073,591.493 338.406,591.66 333.5,592C 330.5,594.333 327.5,596.667 324.5,599C 323.207,599.49 321.873,599.657 320.5,599.5C 318.77,598.974 317.436,597.974 316.5,596.5C 317.873,596.657 319.207,596.49 320.5,596C 323.977,592.518 327.977,589.852 332.5,588C 337.955,587.207 342.955,588.374 347.5,591.5 Z"/></g>
<g><path style="opacity:1" fill="#b1cbfe" d="M 729.5,585.5 C 732.552,586.88 734.718,589.214 736,592.5C 737.439,597.762 737.772,603.096 737,608.5C 733.667,618.5 730.333,628.5 727,638.5C 724.42,643.084 721.087,647.084 717,650.5C 716.26,651.749 716.427,652.749 717.5,653.5C 717.158,654.338 716.492,654.672 715.5,654.5C 713.826,652.376 712.993,650.042 713,647.5C 717.087,644.084 720.42,640.084 723,635.5C 726.333,625.5 729.667,615.5 733,605.5C 734.441,598.268 733.274,591.601 729.5,585.5 Z"/></g>
<g><path style="opacity:1" fill="#6991f6" d="M 445.5,591.5 C 438.403,591.301 433.903,594.634 432,601.5C 427.667,613.833 423.333,626.167 419,638.5C 418.861,641.575 419.361,644.575 420.5,647.5C 419.422,650.402 418.756,653.402 418.5,656.5C 417.209,656.737 416.209,656.404 415.5,655.5C 415.838,650.814 416.005,646.147 416,641.5C 415.329,640.748 414.496,640.414 413.5,640.5C 418.5,625 424,609.667 430,594.5C 432.956,589.769 437.122,587.936 442.5,589C 443.942,589.377 444.942,590.21 445.5,591.5 Z"/></g>
<g><path style="opacity:1" fill="#668ef6" d="M 635.5,590.5 C 628.759,591.729 624.259,595.729 622,602.5C 616.667,617.833 611.333,633.167 606,648.5C 605.503,650.81 605.337,653.143 605.5,655.5C 603.589,655.426 602.422,654.426 602,652.5C 601.333,650.167 601.333,647.833 602,645.5C 607.333,630.167 612.667,614.833 618,599.5C 619.773,593.558 623.607,589.891 629.5,588.5C 631.714,588.611 633.714,589.278 635.5,590.5 Z"/></g>
<g><path style="opacity:1" fill="#bbc8f5" d="M 389.5,589.5 C 391.147,592.752 390.48,595.586 387.5,598C 385.288,598.789 383.288,598.622 381.5,597.5C 382.533,593.133 385.2,590.467 389.5,589.5 Z"/></g>
<g><path style="opacity:1" fill="#b0cafe" d="M 573.5,590.5 C 574.167,590.5 574.5,590.833 574.5,591.5C 571.065,593.167 567.899,595.501 565,598.5C 560.379,609.194 556.879,620.194 554.5,631.5C 553.209,631.737 552.209,631.404 551.5,630.5C 550.61,628.218 550.444,625.885 551,623.5C 553.939,614.015 557.273,604.681 561,595.5C 564.093,591.205 568.26,589.538 573.5,590.5 Z"/></g>
<g><path style="opacity:1" fill="#668ff5" d="M 706.5,592.5 C 697.544,592.625 693.044,597.291 693,606.5C 690.761,609.962 687.594,611.295 683.5,610.5C 681.77,609.974 680.436,608.974 679.5,607.5C 682.862,607.93 685.695,606.93 688,604.5C 689.487,600.884 690.82,597.217 692,593.5C 696.665,588.659 701.498,588.326 706.5,592.5 Z"/></g>
<g><path style="opacity:1" fill="#b3cbfd" d="M 347.5,591.5 C 348.833,592.167 349.833,593.167 350.5,594.5C 346.854,593.717 343.188,593.55 339.5,594C 335.227,597.288 330.727,600.121 326,602.5C 323.601,602.387 321.768,601.387 320.5,599.5C 321.873,599.657 323.207,599.49 324.5,599C 327.5,596.667 330.5,594.333 333.5,592C 338.406,591.66 343.073,591.493 347.5,591.5 Z"/></g>
<g><path style="opacity:1" fill="#afcafe" d="M 445.5,591.5 C 447.144,591.81 448.144,592.81 448.5,594.5C 444.818,594.591 441.651,595.924 439,598.5C 432.51,614.816 426.343,631.149 420.5,647.5C 419.361,644.575 418.861,641.575 419,638.5C 423.333,626.167 427.667,613.833 432,601.5C 433.903,594.634 438.403,591.301 445.5,591.5 Z"/></g>
<g><path style="opacity:1" fill="#afc9fe" d="M 635.5,590.5 C 637.262,591.262 638.262,592.596 638.5,594.5C 632.466,595.354 628.3,598.688 626,604.5C 620.667,619.833 615.333,635.167 610,650.5C 609.505,652.473 609.338,654.473 609.5,656.5C 607.901,656.768 606.568,656.434 605.5,655.5C 605.337,653.143 605.503,650.81 606,648.5C 611.333,633.167 616.667,617.833 622,602.5C 624.259,595.729 628.759,591.729 635.5,590.5 Z"/></g>
<g><path style="opacity:1" fill="#fdfbfc" d="M 574.5,591.5 C 575.638,594.304 575.805,597.304 575,600.5C 572.136,608.092 569.469,615.758 567,623.5C 565.01,629.578 560.843,632.245 554.5,631.5C 556.879,620.194 560.379,609.194 565,598.5C 567.899,595.501 571.065,593.167 574.5,591.5 Z"/></g>
<g><path style="opacity:1" fill="#fdfbfc" d="M 672.5,592.5 C 670.86,599.546 673.193,604.546 679.5,607.5C 680.436,608.974 681.77,609.974 683.5,610.5C 683.953,611.458 684.619,612.292 685.5,613C 690.212,614.443 694.045,613.277 697,609.5C 696.88,601.337 700.713,596.67 708.5,595.5C 709.613,596.946 709.78,598.613 709,600.5C 705.724,610.996 702.057,621.329 698,631.5C 696.883,633.124 695.383,634.124 693.5,634.5C 686.912,633.473 680.579,631.807 674.5,629.5C 672.701,629.577 671.034,630.077 669.5,631C 665.728,638.71 661.561,646.21 657,653.5C 654.643,656.091 651.809,657.758 648.5,658.5C 655.932,636.196 663.932,614.196 672.5,592.5 Z"/></g>
<g><path style="opacity:1" fill="#b1cafe" d="M 706.5,592.5 C 707.906,592.973 708.573,593.973 708.5,595.5C 700.713,596.67 696.88,601.337 697,609.5C 694.045,613.277 690.212,614.443 685.5,613C 684.619,612.292 683.953,611.458 683.5,610.5C 687.594,611.295 690.761,609.962 693,606.5C 693.044,597.291 697.544,592.625 706.5,592.5 Z"/></g>
<g><path style="opacity:1" fill="#fdfcfd" d="M 448.5,594.5 C 449.518,597.377 449.351,600.377 448,603.5C 442.589,619.401 436.589,635.068 430,650.5C 427.063,654.219 423.229,656.219 418.5,656.5C 418.756,653.402 419.422,650.402 420.5,647.5C 426.343,631.149 432.51,614.816 439,598.5C 441.651,595.924 444.818,594.591 448.5,594.5 Z"/></g>
<g><path style="opacity:1" fill="#fdfcfd" d="M 638.5,594.5 C 639.622,596.288 639.789,598.288 639,600.5C 633.864,615.576 628.53,630.576 623,645.5C 620.39,651.621 615.89,655.287 609.5,656.5C 609.338,654.473 609.505,652.473 610,650.5C 615.333,635.167 620.667,619.833 626,604.5C 628.3,598.688 632.466,595.354 638.5,594.5 Z"/></g>
<g><path style="opacity:1" fill="#6b8ef2" d="M 375.5,614.5 C 374.25,614.577 373.417,615.244 373,616.5C 368.979,627.726 365.479,639.059 362.5,650.5C 360.429,649.428 359.095,647.761 358.5,645.5C 362.177,634.137 365.843,622.804 369.5,611.5C 372.089,611.461 374.089,612.461 375.5,614.5 Z"/></g>
<g><path style="opacity:1" fill="#b2c9fb" d="M 403.5,612.5 C 403.02,615.443 402.02,618.11 400.5,620.5C 395.537,621.496 390.537,621.663 385.5,621C 383.934,620.392 382.6,619.558 381.5,618.5C 389.765,619.968 397.099,617.968 403.5,612.5 Z"/></g>
<g><path style="opacity:1" fill="#b0cafe" d="M 375.5,614.5 C 376.833,615.5 378.167,616.5 379.5,617.5C 378.25,617.577 377.417,618.244 377,619.5C 372.979,630.726 369.479,642.059 366.5,653.5C 365.128,652.488 363.795,651.488 362.5,650.5C 365.479,639.059 368.979,627.726 373,616.5C 373.417,615.244 374.25,614.577 375.5,614.5 Z"/></g>
<g><path style="opacity:1" fill="#fdfcfd" d="M 379.5,617.5 C 380.167,617.833 380.833,618.167 381.5,618.5C 382.6,619.558 383.934,620.392 385.5,621C 390.537,621.663 395.537,621.496 400.5,620.5C 396.853,631.272 393.52,642.105 390.5,653C 386.361,656.037 381.695,657.537 376.5,657.5C 372.426,657.789 369.092,656.456 366.5,653.5C 369.479,642.059 372.979,630.726 377,619.5C 377.417,618.244 378.25,617.577 379.5,617.5 Z"/></g>
<g><path style="opacity:1" fill="#6690f7" d="M 491.5,633.5 C 492.833,634.167 493.833,635.167 494.5,636.5C 492.6,650.133 486.6,661.633 476.5,671C 467.987,676.961 458.654,678.794 448.5,676.5C 446.246,675.876 444.579,674.543 443.5,672.5C 453.342,675.758 462.676,674.591 471.5,669C 481.931,659.305 488.598,647.472 491.5,633.5 Z"/></g>
<g><path style="opacity:1" fill="#b1cbff" d="M 494.5,636.5 C 496.017,636.511 497.184,637.177 498,638.5C 496.88,652.575 491.046,664.408 480.5,674C 470.206,681.548 459.54,682.382 448.5,676.5C 458.654,678.794 467.987,676.961 476.5,671C 486.6,661.633 492.6,650.133 494.5,636.5 Z"/></g>
<g><path style="opacity:1" fill="#6590f8" d="M 745.5,636.5 C 746.833,637.5 748.167,638.5 749.5,639.5C 747.073,652.77 740.073,662.936 728.5,670C 723.46,672.19 718.46,674.356 713.5,676.5C 710.432,684.872 707.265,693.206 704,701.5C 694.793,714.346 682.626,718.346 667.5,713.5C 665.77,712.974 664.436,711.974 663.5,710.5C 679.569,715.201 692.069,710.534 701,696.5C 703.735,688.795 706.568,681.128 709.5,673.5C 714.425,671.244 719.425,669.078 724.5,667C 736.024,659.972 743.024,649.805 745.5,636.5 Z"/></g>
<g><path style="opacity:1" fill="#b2cbff" d="M 749.5,639.5 C 751.799,640.632 753.132,642.465 753.5,645C 747.881,663.119 735.881,674.619 717.5,679.5C 714.432,687.872 711.265,696.206 708,704.5C 699.174,716.988 687.341,721.155 672.5,717C 670.416,716.303 668.749,715.136 667.5,713.5C 682.626,718.346 694.793,714.346 704,701.5C 707.265,693.206 710.432,684.872 713.5,676.5C 718.46,674.356 723.46,672.19 728.5,670C 740.073,662.936 747.073,652.77 749.5,639.5 Z"/></g>
<g><path style="opacity:1" fill="#356ef9" d="M 413.5,640.5 C 414.496,640.414 415.329,640.748 416,641.5C 416.005,646.147 415.838,650.814 415.5,655.5C 412.564,654.485 411.231,652.318 411.5,649C 411.864,646.079 412.531,643.246 413.5,640.5 Z"/></g>
<g><path style="opacity:1" fill="#b3ccfe" d="M 583.5,641.5 C 582.629,644.112 581.963,646.779 581.5,649.5C 572.927,655.389 563.594,656.889 553.5,654C 552.429,653.148 551.429,652.315 550.5,651.5C 563.387,654.197 574.387,650.864 583.5,641.5 Z"/></g>
<g><path style="opacity:1" fill="#698ff5" d="M 542.5,646.5 C 539.291,655.922 535.791,665.255 532,674.5C 529.358,677.029 526.192,678.029 522.5,677.5C 520.77,676.974 519.436,675.974 518.5,674.5C 522.883,674.652 526.383,672.985 529,669.5C 531.95,660.643 535.284,651.976 539,643.5C 540.145,644.636 541.312,645.636 542.5,646.5 Z"/></g>
<g><path style="opacity:1" fill="#678ff5" d="M 335.5,649.5 C 328.544,646.899 323.044,648.565 319,654.5C 318.503,656.81 318.337,659.143 318.5,661.5C 313.224,656.994 313.224,652.327 318.5,647.5C 324.74,644.378 330.407,645.044 335.5,649.5 Z"/></g>
<g><path style="opacity:1" fill="#b1cafe" d="M 542.5,646.5 C 544.153,646.66 545.486,647.326 546.5,648.5C 546.5,648.833 546.5,649.167 546.5,649.5C 543.107,658.844 539.607,668.177 536,677.5C 532.662,680.318 528.829,681.151 524.5,680C 523.619,679.292 522.953,678.458 522.5,677.5C 526.192,678.029 529.358,677.029 532,674.5C 535.791,665.255 539.291,655.922 542.5,646.5 Z"/></g>
<g><path style="opacity:1" fill="#b1cafd" d="M 335.5,649.5 C 336.338,649.842 336.672,650.508 336.5,651.5C 330.41,650.137 325.91,652.137 323,657.5C 322.506,659.134 322.34,660.801 322.5,662.5C 320.901,662.768 319.568,662.434 318.5,661.5C 318.337,659.143 318.503,656.81 319,654.5C 323.044,648.565 328.544,646.899 335.5,649.5 Z"/></g>
<g><path style="opacity:1" fill="#fdf9f9" d="M 336.5,651.5 C 333.555,657.454 328.888,661.121 322.5,662.5C 322.34,660.801 322.506,659.134 323,657.5C 325.91,652.137 330.41,650.137 336.5,651.5 Z"/></g>
<g><path style="opacity:1" fill="#6a8cf3" d="M 692.5,656.5 C 688.484,656.814 684.651,657.814 681,659.5C 680,659.167 679,658.833 678,658.5C 676.024,661.311 673.857,663.978 671.5,666.5C 665.527,668.819 660.193,672.153 655.5,676.5C 649.356,678.092 643.356,677.758 637.5,675.5C 635.77,674.974 634.436,673.974 633.5,672.5C 651.18,676.831 664.513,670.998 673.5,655C 679.627,654.902 685.627,654.069 691.5,652.5C 692.429,653.689 692.762,655.022 692.5,656.5 Z"/></g>
<g><path style="opacity:1" fill="#c6d4fb" d="M 692.5,656.5 C 692.739,658.467 692.406,660.301 691.5,662C 684.746,663.189 678.079,664.689 671.5,666.5C 673.857,663.978 676.024,661.311 678,658.5C 679,658.833 680,659.167 681,659.5C 684.651,657.814 688.484,656.814 692.5,656.5 Z"/></g>
<g><path style="opacity:1" fill="#6690f7" d="M 353.5,667.5 C 342.69,679.883 329.357,683.55 313.5,678.5C 311.77,677.974 310.436,676.974 309.5,675.5C 325.429,680.051 339.096,676.384 350.5,664.5C 351.855,665.188 352.855,666.188 353.5,667.5 Z"/></g>
<g><path style="opacity:1" fill="#6991f7" d="M 437.5,668.5 C 429.257,677.592 419.257,679.925 407.5,675.5C 406.167,674.833 404.833,674.167 403.5,673.5C 402.662,673.158 402.328,672.492 402.5,671.5C 414.51,676.266 425.343,674.266 435,665.5C 436.045,666.373 436.878,667.373 437.5,668.5 Z"/></g>
<g><path style="opacity:1" fill="#6990f5" d="M 628.5,669.5 C 620.081,676.869 610.414,679.203 599.5,676.5C 597.246,675.876 595.579,674.543 594.5,672.5C 605.976,676.09 616.143,673.757 625,665.5C 626.376,666.705 627.542,668.038 628.5,669.5 Z"/></g>
<g><path style="opacity:1" fill="#b2cbfe" d="M 353.5,667.5 C 355.434,668.11 357.101,669.11 358.5,670.5C 348.743,680.92 336.743,685.086 322.5,683C 318.965,682.337 315.965,680.837 313.5,678.5C 329.357,683.55 342.69,679.883 353.5,667.5 Z"/></g>
<g><path style="opacity:1" fill="#6891f7" d="M 399.5,670.5 C 389.447,677.678 378.447,679.345 366.5,675.5C 364.147,674.66 362.147,673.326 360.5,671.5C 373.203,676.442 385.203,675.108 396.5,667.5C 397.855,668.188 398.855,669.188 399.5,670.5 Z"/></g>
<g><path style="opacity:1" fill="#b4ccfd" d="M 437.5,668.5 C 439.191,669.864 440.858,671.197 442.5,672.5C 433.675,679.939 423.675,682.105 412.5,679C 410.416,678.303 408.749,677.136 407.5,675.5C 419.257,679.925 429.257,677.592 437.5,668.5 Z"/></g>
<g><path style="opacity:1" fill="#b4ccfd" d="M 628.5,669.5 C 630.23,670.026 631.564,671.026 632.5,672.5C 624.935,678.78 616.269,681.28 606.5,680C 603.558,679.856 601.224,678.689 599.5,676.5C 610.414,679.203 620.081,676.869 628.5,669.5 Z"/></g>
<g><path style="opacity:1" fill="#b4ccfe" d="M 399.5,670.5 C 400.609,670.557 401.609,670.89 402.5,671.5C 402.328,672.492 402.662,673.158 403.5,673.5C 395.217,679.639 385.884,681.805 375.5,680C 371.965,679.337 368.965,677.837 366.5,675.5C 378.447,679.345 389.447,677.678 399.5,670.5 Z"/></g>
<g><path style="opacity:1" fill="#b4cafb" d="M 637.5,675.5 C 643.356,677.758 649.356,678.092 655.5,676.5C 654.488,677.872 653.488,679.205 652.5,680.5C 646.668,681 641.668,679.334 637.5,675.5 Z"/></g>
<g><path style="opacity:1" fill="#668ff5" d="M 684.5,683.5 C 677.111,685.224 673.445,689.891 673.5,697.5C 670.713,696.622 669.38,694.622 669.5,691.5C 671.724,684.187 676.724,679.854 684.5,678.5C 685.167,678.833 685.833,679.167 686.5,679.5C 685.82,680.86 685.153,682.193 684.5,683.5 Z"/></g>
<g><path style="opacity:1" fill="#bbcefb" d="M 684.5,683.5 C 683.776,688.842 681.443,693.342 677.5,697C 676.207,697.49 674.873,697.657 673.5,697.5C 673.445,689.891 677.111,685.224 684.5,683.5 Z"/></g>
</svg>
